<svg id="Layer_1" data-name="Layer 1" xmlns="http://www.w3.org/2000/svg" xmlns:xlink="http://www.w3.org/1999/xlink" viewBox="0 0 595.28 841.89"><defs><style>.cls-1,.cls-5{fill:none;}.cls-2{clip-path:url(#clip-path);}.cls-3{clip-path:url(#clip-path-2);}.cls-4{clip-path:url(#clip-path-3);}.cls-5{stroke:#000;stroke-miterlimit:10;stroke-width:3px;}.cls-6{font-size:52px;font-family:MADEMirage-Medium, MADE Mirage;font-weight:500;}.cls-7{letter-spacing:-0.01em;}.cls-8{letter-spacing:0.01em;}.cls-9{letter-spacing:0.02em;}.cls-10{letter-spacing:0.02em;}.cls-11{letter-spacing:0.01em;}.cls-12{letter-spacing:-0.01em;}</style><clipPath id="clip-path"><rect class="cls-1" x="617.18" y="861.89" width="595.37" height="841.89"/></clipPath><clipPath id="clip-path-2"><rect class="cls-1" x="617.18" y="861.89" width="594.66" height="841.89"/></clipPath><clipPath id="clip-path-3"><rect class="cls-1" x="615.28" y="-860.47" width="595.28" height="840.33"/></clipPath></defs><rect class="cls-5" x="95.14" y="112.31" width="405" height="609"/><text class="cls-6" transform="translate(146.11 171.5)"><tspan class="cls-7">T</tspan><tspan class="cls-8" x="32.76" y="0">h</tspan><tspan class="cls-9" x="63.18" y="0">i</tspan><tspan x="76.65" y="0">s </tspan><tspan class="cls-10" x="108" y="0">h</tspan><tspan class="cls-11" x="138.94" y="0">ap</tspan><tspan class="cls-9" x="194.84" y="0">p</tspan><tspan class="cls-8" x="225.78" y="0">e</tspan><tspan class="cls-9" x="251.16" y="0">n</tspan><tspan x="282.1" y="0">s</tspan><tspan x="135.98" y="62.4">…</tspan><tspan class="cls-7" x="-37.7" y="124.8">t</tspan><tspan class="cls-8" x="-20.33" y="124.8">h</tspan><tspan class="cls-9" x="10.09" y="124.8">i</tspan><tspan x="23.56" y="124.8">s </tspan><tspan class="cls-10" x="54.91" y="124.8">i</tspan><tspan x="68.38" y="124.8">s </tspan><tspan class="cls-8" x="99.73" y="124.8">so</tspan><tspan class="cls-9" x="149.13" y="124.8">m</tspan><tspan class="cls-8" x="196.14" y="124.8">e</tspan><tspan class="cls-7" x="221.52" y="124.8">t</tspan><tspan class="cls-8" x="238.88" y="124.8">hi</tspan><tspan class="cls-12" x="282.25" y="124.8">n</tspan><tspan x="311.63" y="124.8">g </tspan><tspan class="cls-7" x="3.22" y="187.2">t</tspan><tspan class="cls-10" x="20.59" y="187.2">h</tspan><tspan x="51.53" y="187.2">at </tspan><tspan class="cls-9" x="104.78" y="187.2">h</tspan><tspan class="cls-11" x="135.72" y="187.2">ap</tspan><tspan class="cls-9" x="191.62" y="187.2">p</tspan><tspan class="cls-8" x="222.56" y="187.2">e</tspan><tspan class="cls-9" x="247.93" y="187.2">n</tspan><tspan x="278.87" y="187.2">s</tspan></text></svg>