<svg id="Layer_1" data-name="Layer 1" xmlns="http://www.w3.org/2000/svg" xmlns:xlink="http://www.w3.org/1999/xlink" viewBox="0 0 595.28 841.89"><defs><style>.cls-1{fill:none;}.cls-2{clip-path:url(#clip-path);}.cls-3{clip-path:url(#clip-path-2);}</style><clipPath id="clip-path"><rect class="cls-1" x="617.18" width="595.37" height="841.89"/></clipPath><clipPath id="clip-path-2"><rect class="cls-1" x="617.18" width="594.66" height="841.89"/></clipPath></defs><path d="M154.06,785.64c-20.81,32.58-56.39,35-83.71,17.56C42,785.07,29.21,751.77,50,719.19s57.07-36.05,85.44-17.93C162.77,718.71,174.87,753.06,154.06,785.64Z"/><path d="M563.9,125.6C408.41,351.81,289.52,491.9,205,624.31c-9.4,14.72-17.34,18.52-27.78,11.85-11.75-7.5-11.63-16.3-2.24-31C259.51,472.73,336.62,306,476.46,69.75,500,30,531.53,32.43,553.72,46.6,574.6,59.94,590,87.55,563.9,125.6Z"/></svg>