<svg id="Layer_1" data-name="Layer 1" xmlns="http://www.w3.org/2000/svg" viewBox="0 0 595.28 841.89"><defs><style>.cls-1{fill:#5d2989;}.cls-2{fill:#fff;}</style></defs><rect class="cls-1" width="595.28" height="841.89"/><ellipse cx="288.72" cy="415.17" rx="275.5" ry="154.92" transform="translate(-205.89 309.88) rotate(-43.17)"/><path class="cls-2" d="M129.41,403.25v9.23c0,3.58,1.32,4.28,6.43,3.75v4.69a18.23,18.23,0,0,1-3.26.33c-7.91,0-9.43-3.42-9.43-8.9v-9.1h-4.08V399h4.08v-5.68h6.26V399h6.43v4.29Z"/><path class="cls-2" d="M163.48,406.38v14.54h-6.22V408c0-2.64-1.56-4.91-5.44-4.91s-5.6,2.35-5.6,4.91v13H140V392.08h6.26v10a10.3,10.3,0,0,1,8.32-3.66C160.19,398.39,163.48,401.44,163.48,406.38Z"/><path class="cls-2" d="M172.83,411.57c.5,3,2.6,5.65,7.17,5.65,3.34,0,5.48-1.49,6.34-3.34h5.53c-1.45,5.48-6.43,7.66-11.87,7.66-6.26,0-12.81-3.46-12.81-11.58s6.47-11.57,12.77-11.57,13,3.91,12.36,13.18Zm.21-4.12h13.55c-.66-2.63-2.51-4.78-6.63-4.78C176.05,402.67,173.86,404.82,173,407.45Z"/><path class="cls-2" d="M233.35,410c0,7.46-5.19,11.58-11.62,11.58-3.66,0-6.22-1.27-7.83-3.33v2.71h-6.26V392.08h6.26v9.64c1.61-2.06,4.17-3.33,7.83-3.33C228.16,398.39,233.35,402.51,233.35,410Zm-5.85,0c0-4.61-2.59-7.29-7.13-7.29s-7.25,2.68-7.25,7.29,2.72,7.26,7.25,7.26S227.5,414.58,227.5,410Z"/><path class="cls-2" d="M262,410c0,8.29-6.67,11.58-13.1,11.58s-13.1-3.29-13.1-11.58,6.71-11.57,13.1-11.57S262,401.68,262,410Zm-5.85,0c0-3.87-2-7.29-7.25-7.29s-7.21,3.42-7.21,7.29,1.94,7.26,7.21,7.26S256.17,413.8,256.17,410Z"/><path class="cls-2" d="M288.64,399,275.45,427.8h-6.18l3.46-7.53L262.43,399H269l6.68,15,6.51-15Z"/><path class="cls-2" d="M302.93,393.49a2.88,2.88,0,0,1,3.21-3c1.9,0,3.26,1.07,3.26,3s-1.36,2.92-3.26,2.92S302.93,395.34,302.93,393.49Zm.12,5.47h6.22v22h-6.22Z"/><path class="cls-2" d="M337,414.29c0,5-4.29,7.25-12.24,7.25-7.74,0-12.56-2.43-12.56-7.37H319c0,2.18,2.6,3.13,6.18,3.13s5.4-.66,5.4-2.35c0-2-2.72-2.22-8.57-3.21s-8.94-2.19-8.94-6.55,3.92-6.8,11.33-6.8c7.75,0,11.62,2.88,11.62,6.92h-6.3c0-1.4-1.61-2.8-5.4-2.8-3.42,0-5.27.7-5.27,2.39,0,1.89,3.66,2.1,7.58,2.8C332.76,408.77,337,409.22,337,414.29Z"/><path class="cls-2" d="M375.31,406.38v14.54h-6.22V408c0-2.64-1.57-4.91-5.44-4.91s-5.6,2.35-5.6,4.91v13h-6.26V392.08h6.26v10a10.3,10.3,0,0,1,8.32-3.66C372,398.39,375.31,401.44,375.31,406.38Z"/><path class="cls-2" d="M384.66,411.57c.5,3,2.6,5.65,7.17,5.65,3.34,0,5.48-1.49,6.34-3.34h5.52c-1.44,5.48-6.42,7.66-11.86,7.66-6.26,0-12.81-3.46-12.81-11.58s6.47-11.57,12.77-11.57,13,3.91,12.36,13.18Zm.21-4.12h13.55c-.66-2.63-2.51-4.78-6.63-4.78C387.87,402.67,385.69,404.82,384.87,407.45Z"/><path class="cls-2" d="M425.65,398.76v5.77h-.2a11.39,11.39,0,0,0-4.16-.7c-5.2,0-7.09,3.25-7.09,6.67v10.42h-6.26V399h6.26v4a9.43,9.43,0,0,1,8.2-4.57A12.47,12.47,0,0,1,425.65,398.76Z"/><path class="cls-2" d="M432.94,411.57c.5,3,2.6,5.65,7.17,5.65,3.34,0,5.48-1.49,6.34-3.34H452c-1.45,5.48-6.43,7.66-11.87,7.66-6.26,0-12.81-3.46-12.81-11.58s6.47-11.57,12.77-11.57,13,3.91,12.36,13.18Zm.21-4.12H446.7c-.66-2.63-2.51-4.78-6.63-4.78C436.16,402.67,434,404.82,433.15,407.45Z"/><path class="cls-2" d="M461.9,418.08a3.46,3.46,0,1,1-3.46-3.5A3.47,3.47,0,0,1,461.9,418.08Z"/></svg>