<svg id="Layer_1" data-name="Layer 1" xmlns="http://www.w3.org/2000/svg" viewBox="0 0 595.28 841.89"><defs><style>.cls-1{fill:#0000f5;}.cls-2{font-size:44.07px;fill:#fff;font-family:MADEMirage-Medium, MADE Mirage;font-weight:500;}.cls-3{letter-spacing:-0.01em;}.cls-4{letter-spacing:0.02em;}.cls-5{letter-spacing:0.01em;}.cls-6{letter-spacing:0.01em;}.cls-7{letter-spacing:-0.03em;}.cls-8{letter-spacing:0.02em;}.cls-9{letter-spacing:0.03em;}.cls-10{letter-spacing:-0.02em;}.cls-11{letter-spacing:0.01em;}.cls-12{letter-spacing:-0.04em;}.cls-13{letter-spacing:-0.06em;}</style></defs><rect class="cls-1" width="595.28" height="841.89"/><text class="cls-2" transform="translate(66.44 273.59) scale(0.93 1)"><tspan class="cls-3">t</tspan><tspan class="cls-4" x="14.72" y="0">h</tspan><tspan class="cls-5" x="40.94" y="0">e</tspan><tspan x="62.44" y="0">re’s a </tspan><tspan class="cls-6" x="168.6" y="0">qu</tspan><tspan class="cls-4" x="219.33" y="0">i</tspan><tspan x="230.74" y="0">ck </tspan><tspan class="cls-4" x="285.38" y="0">m</tspan><tspan class="cls-5" x="325.22" y="0">o</tspan><tspan class="cls-4" x="348.88" y="0">m</tspan><tspan class="cls-5" x="388.72" y="0">e</tspan><tspan x="410.22" y="0">nt of </tspan><tspan x="-6.32" y="52.88">e</tspan><tspan class="cls-7" x="14.74" y="52.88">y</tspan><tspan x="36.2" y="52.88">e </tspan><tspan class="cls-8" x="66.08" y="52.88">c</tspan><tspan class="cls-5" x="87.58" y="52.88">o</tspan><tspan x="111.25" y="52.88">nt</tspan><tspan class="cls-4" x="151.75" y="52.88">a</tspan><tspan x="173.78" y="52.88">ct </tspan><tspan class="cls-9" x="218.38" y="52.88">b</tspan><tspan class="cls-6" x="245.04" y="52.88">e</tspan><tspan x="266.54" y="52.88">t</tspan><tspan class="cls-10" x="281.7" y="52.88">w</tspan><tspan class="cls-9" x="314" y="52.88">e</tspan><tspan class="cls-5" x="336.39" y="52.88">e</tspan><tspan x="357.89" y="52.88">n </tspan><tspan class="cls-3" x="392.05" y="52.88">t</tspan><tspan class="cls-4" x="406.77" y="52.88">h</tspan><tspan class="cls-11" x="432.99" y="52.88">e</tspan><tspan x="454.49" y="52.88">m,</tspan><tspan x="59.67" y="264.41"> </tspan><tspan class="cls-3" x="68.48" y="264.41">t</tspan><tspan class="cls-4" x="83.2" y="264.41">h</tspan><tspan class="cls-5" x="109.42" y="264.41">e</tspan><tspan x="130.92" y="264.41">n </tspan><tspan class="cls-8" x="165.08" y="264.41">h</tspan><tspan x="191.3" y="264.41">e </tspan><tspan class="cls-4" x="221.18" y="264.41">l</tspan><tspan class="cls-9" x="232.63" y="264.41">o</tspan><tspan class="cls-6" x="257.18" y="264.41">o</tspan><tspan class="cls-4" x="280.84" y="264.41">k</tspan><tspan x="306.93" y="264.41">s a</tspan><tspan class="cls-12" x="354.65" y="264.41">w</tspan><tspan x="386.07" y="264.41">a</tspan><tspan class="cls-13" x="407.23" y="264.41">y</tspan><tspan x="427.37" y="264.41">.</tspan></text></svg>