<svg id="Layer_1" data-name="Layer 1" xmlns="http://www.w3.org/2000/svg" viewBox="0 0 595.28 841.89"><path d="M304.85,339.8v89.06c0,6.48,1.62,9.72,7.61,10.21V441H286.39v-1.94c6-.49,7.61-3.73,7.61-10.21V385.14H226.63v43.72c0,6.48,1.62,9.72,7.61,10.21V441H208.17v-1.94c6-.49,7.61-3.73,7.61-10.21V339.8c0-6.32-1.62-9.56-7.61-10v-2.11h26.07v2.11c-6,.48-7.61,3.72-7.61,10v42.26H294V339.8c0-6.32-1.62-9.56-7.61-10v-2.11h26.07v2.11C306.47,330.24,304.85,333.48,304.85,339.8Z"/><path d="M347.11,339.8v89.06c0,6.48,1.62,9.72,7.77,10.21V441H328.65v-1.94c6.15-.49,7.77-3.73,7.77-10.21V339.8c0-6.32-1.62-9.56-7.77-10v-2.11h26.23v2.11C348.73,330.24,347.11,333.48,347.11,339.8Z"/><path d="M387.1,434.86c0,5-3.72,7.77-7.93,7.77-4.37,0-8.1-2.76-8.1-7.77s3.73-7.94,8.1-7.94A7.64,7.64,0,0,1,387.1,434.86ZM384.51,334c-1,35.62-3.56,59.27-3.56,79.67,0,2.27-.49,3.24-1.78,3.24-1.46,0-1.94-1-1.94-3.24,0-20.4-2.6-44.05-3.57-79.67-.16-6,2.76-7.94,5.51-7.94C381.76,326,384.67,328,384.51,334Z"/><path d="M304.85,230.6v89.07c0,6.47,1.62,9.71,7.61,10.2v1.94H286.39v-1.94c6-.49,7.61-3.73,7.61-10.2V275.94H226.63v43.73c0,6.47,1.62,9.71,7.61,10.2v1.94H208.17v-1.94c6-.49,7.61-3.73,7.61-10.2V230.6c0-6.32-1.62-9.55-7.61-10v-2.11h26.07v2.11c-6,.49-7.61,3.72-7.61,10v42.27H294V230.6c0-6.32-1.62-9.55-7.61-10v-2.11h26.07v2.11C306.47,221.05,304.85,224.28,304.85,230.6Z"/><path d="M347.11,230.6v89.07c0,6.47,1.62,9.71,7.77,10.2v1.94H328.65v-1.94c6.15-.49,7.77-3.73,7.77-10.2V230.6c0-6.32-1.62-9.55-7.77-10v-2.11h26.23v2.11C348.73,221.05,347.11,224.28,347.11,230.6Z"/><path d="M387.1,325.66c0,5-3.72,7.77-7.93,7.77-4.37,0-8.1-2.75-8.1-7.77s3.73-7.94,8.1-7.94A7.65,7.65,0,0,1,387.1,325.66Zm-2.59-100.89c-1,35.63-3.56,59.27-3.56,79.67,0,2.27-.49,3.24-1.78,3.24-1.46,0-1.94-1-1.94-3.24,0-20.4-2.6-44-3.57-79.67-.16-6,2.76-7.93,5.51-7.93C381.76,216.84,384.67,218.78,384.51,224.77Z"/><path d="M304.85,120.51v89.06c0,6.48,1.62,9.72,7.61,10.2v1.95H286.39v-1.95c6-.48,7.61-3.72,7.61-10.2V165.85H226.63v43.72c0,6.48,1.62,9.72,7.61,10.2v1.95H208.17v-1.95c6-.48,7.61-3.72,7.61-10.2V120.51c0-6.32-1.62-9.56-7.61-10v-2.11h26.07v2.11c-6,.48-7.61,3.72-7.61,10v42.26H294V120.51c0-6.32-1.62-9.56-7.61-10v-2.11h26.07v2.11C306.47,111,304.85,114.19,304.85,120.51Z"/><path d="M347.11,120.51v89.06c0,6.48,1.62,9.72,7.77,10.2v1.95H328.65v-1.95c6.15-.48,7.77-3.72,7.77-10.2V120.51c0-6.32-1.62-9.56-7.77-10v-2.11h26.23v2.11C348.73,111,347.11,114.19,347.11,120.51Z"/><path d="M387.1,215.56c0,5-3.72,7.78-7.93,7.78-4.37,0-8.1-2.76-8.1-7.78s3.73-7.93,8.1-7.93A7.64,7.64,0,0,1,387.1,215.56Zm-2.59-100.88c-1,35.62-3.56,59.26-3.56,79.67,0,2.27-.49,3.24-1.78,3.24-1.46,0-1.94-1-1.94-3.24,0-20.41-2.6-44-3.57-79.67-.16-6,2.76-7.94,5.51-7.94C381.76,106.74,384.67,108.68,384.51,114.68Z"/><path d="M304.85,449.89V539c0,6.48,1.62,9.71,7.61,10.2v1.94H286.39v-1.94c6-.49,7.61-3.72,7.61-10.2V495.24H226.63V539c0,6.48,1.62,9.71,7.61,10.2v1.94H208.17v-1.94c6-.49,7.61-3.72,7.61-10.2V449.89c0-6.31-1.62-9.55-7.61-10v-2.1h26.07v2.1c-6,.49-7.61,3.73-7.61,10v42.27H294V449.89c0-6.31-1.62-9.55-7.61-10v-2.1h26.07v2.1C306.47,440.34,304.85,443.58,304.85,449.89Z"/><path d="M347.11,449.89V539c0,6.48,1.62,9.71,7.77,10.2v1.94H328.65v-1.94c6.15-.49,7.77-3.72,7.77-10.2V449.89c0-6.31-1.62-9.55-7.77-10v-2.1h26.23v2.1C348.73,440.34,347.11,443.58,347.11,449.89Z"/><path d="M387.1,545c0,5-3.72,7.77-7.93,7.77-4.37,0-8.1-2.75-8.1-7.77s3.73-7.93,8.1-7.93A7.64,7.64,0,0,1,387.1,545Zm-2.59-100.89c-1,35.63-3.56,59.27-3.56,79.68,0,2.26-.49,3.23-1.78,3.23-1.46,0-1.94-1-1.94-3.23,0-20.41-2.6-44.05-3.57-79.68-.16-6,2.76-7.93,5.51-7.93C381.76,436.13,384.67,438.07,384.51,444.06Z"/><path d="M304.85,607.86v89.06c0,6.48,1.62,9.72,7.61,10.2v2H286.39v-2c6-.48,7.61-3.72,7.61-10.2V653.2H226.63v43.72c0,6.48,1.62,9.72,7.61,10.2v2H208.17v-2c6-.48,7.61-3.72,7.61-10.2V607.86c0-6.32-1.62-9.56-7.61-10v-2.11h26.07v2.11c-6,.48-7.61,3.72-7.61,10v42.26H294V607.86c0-6.32-1.62-9.56-7.61-10v-2.11h26.07v2.11C306.47,598.3,304.85,601.54,304.85,607.86Z"/><path d="M347.11,607.86v89.06c0,6.48,1.62,9.72,7.77,10.2v2H328.65v-2c6.15-.48,7.77-3.72,7.77-10.2V607.86c0-6.32-1.62-9.56-7.77-10v-2.11h26.23v2.11C348.73,598.3,347.11,601.54,347.11,607.86Z"/><path d="M387.1,702.91c0,5-3.72,7.77-7.93,7.77-4.37,0-8.1-2.75-8.1-7.77s3.73-7.93,8.1-7.93A7.64,7.64,0,0,1,387.1,702.91ZM384.51,602c-1,35.62-3.56,59.26-3.56,79.67,0,2.27-.49,3.24-1.78,3.24-1.46,0-1.94-1-1.94-3.24,0-20.41-2.6-44.05-3.57-79.67-.16-6,2.76-7.94,5.51-7.94C381.76,594.09,384.67,596,384.51,602Z"/></svg>