<svg id="Layer_1" data-name="Layer 1" xmlns="http://www.w3.org/2000/svg" xmlns:xlink="http://www.w3.org/1999/xlink" viewBox="0 0 595.28 841.89"><defs><style>.cls-1{fill:none;}.cls-2{clip-path:url(#clip-path);}.cls-3{fill:url(#linear-gradient);}</style><clipPath id="clip-path"><rect class="cls-1" x="-615.28" y="1.42" width="595.28" height="840.33"/></clipPath><linearGradient id="linear-gradient" x1="166.96" y1="420.94" x2="428.31" y2="420.94" gradientUnits="userSpaceOnUse"><stop offset="0" stop-color="#f50000"/><stop offset="0.19" stop-color="#c20033"/><stop offset="0.59" stop-color="#5b009a"/><stop offset="0.87" stop-color="#1900dc"/><stop offset="1" stop-color="#0000f5"/></linearGradient></defs><circle class="cls-3" cx="297.64" cy="420.94" r="130.67"/><path d="M80.29,122.48H43.81v-13H76.38c9.52,0,14.81-5.18,14.81-15.44S85.27,78.17,76.38,78.17H43.81v-13h74v13H91.5c3.7,2.64,10.26,9.83,10.26,21.57C101.76,114.44,93.41,122.48,80.29,122.48Z"/><path d="M67.82,195.55V144.79c-9.63,1.48-16,8.35-16,20.2,0,11,5.29,15.65,9.31,17.55V194c-11.53-2.86-18.93-13.85-18.93-29,0-16.08,9.2-31.94,29.71-31.94,20.2,0,29.82,15.55,29.82,31.72C101.76,182.64,91.19,197,67.82,195.55Zm9.51-11.63c8.89-1.7,14.81-7.83,14.81-19.15,0-10.46-5.92-17.65-14.81-19.66Z"/><path d="M80.29,294.21H43.81v-13H76.38c9.52,0,14.81-5.18,14.81-15.44S85.27,249.9,76.38,249.9H43.81v-13h74v13H91.5c3.7,2.64,10.26,9.83,10.26,21.57C101.76,286.17,93.41,294.21,80.29,294.21Z"/><path d="M80.4,363.05H43.81V350h7.3c-3.17-2.75-8.88-9.52-8.88-22.73,0-13.54,5.6-22.53,16.39-22.53,11.63,0,20.83,6.35,18.29,45.26H80.4c7.83,0,11.74-4,11.74-15.75,0-10.05-3.28-14.17-8-15.13V307c11.84,1.69,17.66,12.69,17.66,27.29C101.76,349.83,96.58,363.05,80.4,363.05ZM69.09,350c1.16-23.47-.85-31.93-9.63-31.93-5.71,0-8.56,4.44-8.56,11.95,0,9.94,3.7,16.49,8.78,20Z"/><path d="M90.23,395.51H64.86c-9.52,0-12.16,3.81-10.79,17H43.92a29.91,29.91,0,0,1-1-7.4c0-17.13,7-22.63,21.89-22.63H90.23v-11h9.94v11h14.6v13h-14.6v17H90.23Z"/><path d="M67.82,482.44V431.68c-9.63,1.48-16,8.35-16,20.2,0,11,5.29,15.65,9.31,17.55v11.42C49.63,478,42.23,467,42.23,451.88c0-16.08,9.2-31.94,29.71-31.94,20.2,0,29.82,15.55,29.82,31.72C101.76,469.53,91.19,483.92,67.82,482.44Zm9.51-11.64c8.89-1.69,14.81-7.82,14.81-19.14,0-10.46-5.92-17.66-14.81-19.66Z"/><path d="M60.84,547.79c-13.11,0-18.61-10.89-18.61-29.72,0-17.13,5.92-30.24,18.71-30.24v13.43c-6.13,0-8.88,6-8.88,17.87,0,11.53,2.86,15.65,7.08,15.65,6.24,0,6.35-9.41,9-23.79,2.75-14.6,6.14-21,16.18-21,11.32,0,17.45,10.57,17.45,27.17,0,18.08-7.19,27.81-17.66,27.81V532.77c3.6,0,8-3.81,8-15.86,0-11.32-2.86-15.23-7.19-15.23-5.71,0-6.45,11.11-8.15,21.15C74.06,538.8,71.94,547.79,60.84,547.79Z"/><path d="M80.29,682.72H43.81V669.6H76.38c9.52,0,14.81-3.48,14.81-13.43s-6.35-13.85-14.81-13.85H43.81v-13H76.38c9.52,0,14.81-3.6,14.81-13.43S84.84,602,76.38,602H43.81V589h56.36v13H91.93c3.7,2.12,9.83,7.51,9.83,18.51,0,9.73-3.59,16.07-9.83,19.25,3.8,2.85,9.83,9.83,9.83,21.14C101.76,675.63,93.41,682.72,80.29,682.72Z"/><path d="M67.82,755.79V705c-9.63,1.48-16,8.36-16,20.2,0,11,5.29,15.65,9.31,17.55V754.2c-11.53-2.85-18.93-13.85-18.93-29,0-16.07,9.2-31.94,29.71-31.94,20.2,0,29.82,15.55,29.82,31.73C101.76,742.89,91.19,757.27,67.82,755.79Zm9.51-11.63c8.89-1.69,14.81-7.83,14.81-19.14,0-10.47-5.92-17.66-14.81-19.67Z"/><path d="M49.52,776.73a7.25,7.25,0,1,1,7.19-7.19A7.2,7.2,0,0,1,49.52,776.73Z"/></svg>