<svg id="Layer_1" data-name="Layer 1" xmlns="http://www.w3.org/2000/svg" xmlns:xlink="http://www.w3.org/1999/xlink" viewBox="0 0 595.28 841.89"><defs><style>.cls-1{fill:none;}.cls-2{clip-path:url(#clip-path);}.cls-3{clip-path:url(#clip-path-2);}</style><clipPath id="clip-path"><rect class="cls-1" x="617.18" width="595.37" height="841.89"/></clipPath><clipPath id="clip-path-2"><rect class="cls-1" x="617.18" width="594.66" height="841.89"/></clipPath></defs><path d="M140.06,782.64c-20.81,32.58-56.39,35-83.71,17.56C28,782.07,15.21,748.77,36,716.19s57.07-36.05,85.44-17.93C148.77,715.71,160.87,750.06,140.06,782.64Z"/><path d="M549.9,122.6C394.41,348.81,275.52,488.9,191,621.31c-9.4,14.72-17.34,18.52-27.78,11.85-11.75-7.5-11.63-16.3-2.24-31C245.51,469.73,322.62,303,462.46,66.75,486,27,517.53,29.43,539.72,43.6,560.6,56.94,576,84.55,549.9,122.6Z"/></svg>