<svg id="Layer_1" data-name="Layer 1" xmlns="http://www.w3.org/2000/svg" xmlns:xlink="http://www.w3.org/1999/xlink" viewBox="0 0 595.28 841.89"><defs><style>.cls-1{fill:none;}.cls-2{clip-path:url(#clip-path);}.cls-3{fill:url(#linear-gradient);}.cls-4{stroke:#000;stroke-miterlimit:10;stroke-width:0.75px;}</style><clipPath id="clip-path"><rect class="cls-1" x="-615.28" y="1.42" width="595.28" height="840.33"/></clipPath><linearGradient id="linear-gradient" x1="166.96" y1="420.94" x2="428.31" y2="420.94" gradientUnits="userSpaceOnUse"><stop offset="0" stop-color="#f50000"/><stop offset="0.19" stop-color="#c20033"/><stop offset="0.59" stop-color="#5b009a"/><stop offset="0.87" stop-color="#1900dc"/><stop offset="1" stop-color="#0000f5"/></linearGradient></defs><circle class="cls-3" cx="297.64" cy="420.94" r="130.67"/><path class="cls-4" d="M64.38,116.21H24.12V104.53h37c9,0,18-3.81,18-15.88s-10.54-17.14-18-17.14h-37V60H113V71.51H79.49A22.94,22.94,0,0,1,90,91.45C90,105.92,78,116.21,64.38,116.21Z"/><path class="cls-4" d="M51.3,192.41V141.23c-10.54,1.78-17.78,9.65-17.78,22.23,0,7,2.66,13.33,7.24,16.89l-6.1,9.52c-7.75-5.71-12.19-15.11-12.19-26.41,0-21.34,15.24-34.55,33.78-34.55S90,142.63,90,161.55C90,179.08,75.3,195.46,51.3,192.41Zm9.9-11.68c10.92-1.53,17.91-8.26,17.91-19.18S71.87,143,61.2,141.23Z"/><path class="cls-4" d="M64.38,296H24.12V284.36h37c9,0,18-3.81,18-15.88s-10.54-17.14-18-17.14h-37V239.78H113v11.56H79.49A22.94,22.94,0,0,1,90,271.28C90,285.75,78,296,64.38,296Z"/><path class="cls-4" d="M63,364.24H24.12V352.68H33c-5-2.92-10.54-10.92-10.54-21.08,0-12.19,7.36-22.86,18.92-22.86,20.19,0,20.7,24.51,20.7,33.53v10.41c9.78,0,17.4-2,17.4-15.36a30.13,30.13,0,0,0-5.72-16.64L80,312.55A40.26,40.26,0,0,1,90,339.6C90,358.15,78.35,364.24,63,364.24Zm-9.91-11.56v-4.44c0-11.94.13-27.56-11.17-27.56-4.95,0-10,3.17-10,13.46,0,11.05,7.74,17.78,10.66,18.54Z"/><path class="cls-4" d="M77.46,395.36H49.26c-9.14,0-15.24.12-15.24,10.16a46.27,46.27,0,0,0,.26,4.69H24.12a27.59,27.59,0,0,1-.64-6.22c0-14,7.5-20.19,21.59-20.19H77.46v-10H88.51v10H102v11.56H88.51v14.85H77.46Z"/><path class="cls-4" d="M51.3,483.24V432.06c-10.54,1.78-17.78,9.65-17.78,22.22,0,7,2.66,13.34,7.24,16.89l-6.1,9.53c-7.75-5.72-12.19-15.11-12.19-26.42,0-21.33,15.24-34.54,33.78-34.54S90,433.45,90,452.38C90,469.9,75.3,486.29,51.3,483.24Zm9.9-11.69c10.92-1.52,17.91-8.25,17.91-19.17s-7.24-18.54-17.91-20.32Z"/><path class="cls-4" d="M43.42,541.79c-11.43,0-21-8.13-21-25.28,0-12.7,5.08-23.37,14.73-25.91L41,501.91c-3.3,1-7.88,4.44-7.88,14.86,0,8.38,3.43,13.08,9.15,13.08,7.49,0,7.49-10.8,9.52-19.69,2.67-12.06,8.51-17.27,18-17.27,11.81,0,20.19,9.78,20.19,23.75,0,10.41-5.33,19.68-14.86,22l-2.92-10.79c3.56-1.15,7.37-5,7.37-12.2,0-6.35-3.56-11.05-8.89-11.05-7.24,0-7.75,8.89-9.27,16.26C58.15,536.58,53.07,541.79,43.42,541.79Z"/><path class="cls-4" d="M66.66,678.69H24.12V667.13H63.23c9.15,0,15.88-4.44,15.88-13.84,0-9-7.62-14.1-15.88-14.1H24.12V627.63H63.23c9.15,0,15.88-4.44,15.88-13.71s-7.62-14.23-15.88-14.23H24.12V588.14H88.51v11.55H80.89A20.39,20.39,0,0,1,90,617a21.76,21.76,0,0,1-10.41,18.54A24.56,24.56,0,0,1,90,656.08C90,668.27,80.25,678.69,66.66,678.69Z"/><path class="cls-4" d="M51.3,754.89V703.71c-10.54,1.77-17.78,9.65-17.78,22.22,0,7,2.66,13.34,7.24,16.89l-6.1,9.53c-7.75-5.72-12.19-15.12-12.19-26.42,0-21.34,15.24-34.54,33.78-34.54S90,705.1,90,724C90,741.55,75.3,757.93,51.3,754.89Zm9.9-11.69C72.12,741.68,79.11,735,79.11,724s-7.24-18.55-17.91-20.32Z"/><path class="cls-4" d="M30.47,781.94a7.94,7.94,0,1,1,7.87-8A8,8,0,0,1,30.47,781.94Z"/></svg>