<svg id="Layer_1" data-name="Layer 1" xmlns="http://www.w3.org/2000/svg" viewBox="0 0 208 292"><defs><style>.cls-1{fill:#fff;}</style></defs><path class="cls-1" d="M180.6,73.15c-4.76,78-80,65.35-84.36,147.73,0,2.77-1.19,5.14-3.17,5.14-1.58,0-4.35-.39-4.35-5.14,1.58-80.39,61.38-81.18,65.34-147.73,2-39.21-18.21-63-53.86-63-30.1,0-47.92,21-48.71,38-.4,5.55-2,12.27-6.34,17-4.35,4-12.67,4.35-17.82,0C20.6,59.29,21,51.37,24.56,43.05,32.08,25.64,63,3.86,100.2,3.86,145.75,3.86,183,26.82,180.6,73.15ZM113.27,270c0,12.27-8.71,19-19.41,19s-19.8-6.74-19.8-19,9.11-19.41,19.8-19.41S113.27,257.7,113.27,270Z"/></svg>