<svg xmlns="http://www.w3.org/2000/svg" xmlns:xlink="http://www.w3.org/1999/xlink" viewBox="0 0 595.28 841.89"><defs><style>.cls-1{fill:url(#Gradiente_sem_nome_28);}.cls-2{fill:#b12e48;}.cls-3{fill:none;stroke:#000;stroke-width:2.13px;}</style><linearGradient id="Gradiente_sem_nome_28" x1="58.18" y1="199.38" x2="433.57" y2="199.38" gradientUnits="userSpaceOnUse"><stop offset="0" stop-color="#f50000"/><stop offset="0.02" stop-color="#ea070b"/><stop offset="0.09" stop-color="#d11826"/><stop offset="0.16" stop-color="#bf2439"/><stop offset="0.23" stop-color="#b52c44"/><stop offset="0.31" stop-color="#b12e48"/><stop offset="0.36" stop-color="#9a2d5a"/><stop offset="0.44" stop-color="#7f2b6f"/><stop offset="0.52" stop-color="#6c2a7d"/><stop offset="0.6" stop-color="#612986"/><stop offset="0.69" stop-color="#5d2989"/><stop offset="0.71" stop-color="#522496"/><stop offset="0.76" stop-color="#3417b8"/><stop offset="0.82" stop-color="#1d0dd3"/><stop offset="0.88" stop-color="#0d06e6"/><stop offset="0.94" stop-color="#0301f1"/><stop offset="1" stop-color="#0000f5"/></linearGradient></defs><title>marcie cartaz</title><g id="Camada_2" data-name="Camada 2"><path class="cls-1" d="M210.12,227.83c7.41-21.28,73.8-17.51,148.29,8.43q5.38,1.87,10.61,3.83c39.55-9.83,64.55-24.32,64.55-40.47,0-29.62-84-53.63-187.7-53.63s-187.7,24-187.7,53.63c0,27.2,70.85,49.66,162.69,53.15C211.78,243.35,207.73,234.7,210.12,227.83Z"/><path class="cls-2" d="M369,240.09q-5.23-2-10.61-3.83c-74.49-25.94-140.88-29.71-148.29-8.43-2.39,6.87,1.66,15.52,10.75,24.94,19.06,19.77,60.26,43,110.7,60.56,74.49,25.94,140.88,29.71,148.29,8.43C486.92,301.5,438,265.85,369,240.09Z"/><path d="M164,723.91h20.77c-2.78,17.48-19,24-34.55,24-16.86,0-35.78-7.71-35.78-28.89s18.92-28.89,35.78-28.89c15.53,0,31.77,6.48,34.55,23.85H164c-1.44-5.24-5.76-9.25-13.78-9.25-10.38,0-14.29,6.89-14.29,14.29s3.91,14.29,14.29,14.29C158.2,733.27,162.52,729.15,164,723.91Z"/><path d="M259.48,719c0,21.18-18.92,28.89-35.78,28.89s-35.88-7.71-35.88-28.89,18.92-28.89,35.88-28.89S259.48,697.8,259.48,719ZM238,719c0-7.4-3.91-14.29-14.29-14.29S209.3,711.57,209.3,719s3.91,14.29,14.39,14.29S238,726.38,238,719Z"/><path d="M331.14,711.06v35.27H308.73V716.2c0-6.07-2.47-10.8-10.18-10.8s-10.49,4.63-10.49,10.8v30.13H265.65v-54.8h22.41v7c2.16-2.88,8.64-8.43,19.23-8.43C322.4,690.08,331.14,697.08,331.14,711.06Z"/><path d="M366.72,691.52h14.19v12.65H366.72v42.16H344.3V704.17h-9V691.52h9c0-12.24,4.42-21.08,24.37-21.08,4.22,0,9.25.41,13.26.72v14C372.58,684.12,366.72,684,366.72,691.52Z"/><path d="M451.44,724H404c1.34,5.65,5.24,10.18,14.29,10.18,7.09,0,10.49-3.6,12.34-6.37h19.95c-3.5,15-17.38,20-32.29,20-17.58,0-35.37-7.71-35.37-28.89s17.89-28.89,34.86-28.89C433.34,690.08,453,698.51,451.44,724Zm-21-11.41c-1.64-5.66-5.76-8.84-12.65-8.84-7.81,0-11.82,3.8-13.37,8.84Z"/><path d="M522.9,729.05c0,14.09-13.06,18.82-34.55,18.82-23.13,0-34.75-6.27-34.75-19.33H477c0,5.35,4.73,6.79,12.34,6.79,6.68,0,10.28-1.13,10.28-4.32,0-4.22-6.58-4.32-19.95-6.27-15.32-2.26-23.85-4.94-23.85-16.45,0-12,10.9-18.2,31.57-18.2,23.55,0,32.59,7.61,32.59,18.1H497.71c0-3.6-3.39-5.65-10.49-5.65-7.4,0-10.18,1.23-10.18,4,0,3.5,5.76,3.7,15.11,4.83C508.81,713.32,522.9,714.76,522.9,729.05Z"/><path d="M595.28,729.05c0,14.09-13.06,18.82-34.55,18.82-23.13,0-34.75-6.27-34.75-19.33h23.44c0,5.35,4.73,6.79,12.34,6.79,6.68,0,10.28-1.13,10.28-4.32,0-4.22-6.58-4.32-19.95-6.27-15.32-2.26-23.85-4.94-23.85-16.45,0-12,10.9-18.2,31.57-18.2,23.55,0,32.59,7.61,32.59,18.1H570.09c0-3.6-3.39-5.65-10.49-5.65-7.4,0-10.18,1.23-10.18,4,0,3.5,5.76,3.7,15.11,4.83C581.19,713.32,595.28,714.76,595.28,729.05Z"/><path class="cls-3" d="M108.93,582.41v85.65H89.23V582.41Z"/><path class="cls-3" d="M272.77,602.85l-26.31,65.22h-17l-16.64-44-16.52,44H179.16L153,602.85h19.33l16.15,43.93L205,602.85h15.78l16.52,43.93,16.15-43.93Z"/><path class="cls-3" d="M344,625.73v42.33h-18.6v-8.69c-2.81,4.28-12.24,10.52-26.8,10.52-15.29,0-25.82-6.36-25.82-19.21,0-13.7,7.1-24.72,52.61-21.9v-3.06c0-6.85-3.06-11.87-16.52-11.87-11.26,0-14.8,3.3-15.78,7.83H275.7c2.08-14.44,15.29-20.55,33.16-20.55C327.58,601.13,344,606.52,344,625.73Zm-18.6,14.07c-24.72-1.35-33.89,1-33.89,10.28,0,6.12,4.53,8.57,12.6,8.57,10,0,17.86-3.92,21.29-9.67Z"/><path class="cls-3" d="M428.52,624.87v43.19h-18.6V629.52c0-7.83-4.53-14.56-16-14.56s-16.64,7-16.64,14.56v38.54h-18.6V602.85h18.6V612c2.81-3.92,10.77-10.89,24.72-10.89C418.73,601.13,428.52,610.19,428.52,624.87Z"/><path class="cls-3" d="M513.06,624.87v43.19h-18.6V629.52c0-7.83-4.53-14.56-16-14.56s-16.64,7-16.64,14.56v38.54H443.2V602.85h18.6V612c2.81-3.92,10.77-10.89,24.72-10.89C503.27,601.13,513.06,610.19,513.06,624.87Z"/><path class="cls-3" d="M595.28,625.73v42.33h-18.6v-8.69c-2.81,4.28-12.24,10.52-26.8,10.52-15.29,0-25.82-6.36-25.82-19.21,0-13.7,7.1-24.72,52.61-21.9v-3.06c0-6.85-3.06-11.87-16.52-11.87-11.26,0-14.81,3.3-15.78,7.83H527c2.08-14.44,15.29-20.55,33.16-20.55C578.88,601.13,595.28,606.52,595.28,625.73Zm-18.6,14.07c-24.72-1.35-33.89,1-33.89,10.28,0,6.12,4.53,8.57,12.6,8.57,10,0,17.86-3.92,21.29-9.67Z"/></g></svg>