<svg xmlns="http://www.w3.org/2000/svg" xmlns:xlink="http://www.w3.org/1999/xlink" viewBox="0 0 595.28 841.89"><defs><style>.cls-1{fill:url(#Gradiente_sem_nome_15);}.cls-2{fill:#f50000;}</style><radialGradient id="Gradiente_sem_nome_15" cx="297.64" cy="420.95" r="364.54" gradientUnits="userSpaceOnUse"><stop offset="0" stop-color="#0000f5"/><stop offset="1" stop-color="#fff" stop-opacity="0"/></radialGradient></defs><title>marcie cartaz</title><g id="Camada_2" data-name="Camada 2"><rect class="cls-1" width="595.28" height="841.89"/><path class="cls-2" d="M38.23,383.74V381H75.14v2.74H73.41q-6,0-7.8,1a5.19,5.19,0,0,0-2.47,3.66q-.62,2.68-.62,12.74v39.59A106.67,106.67,0,0,0,63,453.18a6.34,6.34,0,0,0,2.38,4.38Q67.28,459,72.76,459h2.38v2.74H38.23V459h2.38q5.18,0,7.17-1.31a6,6,0,0,0,2.53-4.08q.54-2.77.54-12.89V401.12q0-9.64-.54-12.44a5.33,5.33,0,0,0-2.38-3.87q-1.85-1.07-8-1.07Z"/><path class="cls-2" d="M136.57,422.08l24.65-22.21q8.57-7.68,8.57-11,0-4.94-8.57-5.18V381h30.42v2.74a20.64,20.64,0,0,0-7.53,1.61,28.48,28.48,0,0,0-6.94,4q-3.16,2.5-11.73,10.54l-14.7,13.57L181,444q10.36,10.54,13.87,12.74A16.91,16.91,0,0,0,204,459v2.74H162.05V459h1.61q6.79,0,8.45-1.13a3.31,3.31,0,0,0,1.67-2.8q0-2.5-8.63-11.13l-22.8-23L136.57,426v14.71a99.67,99.67,0,0,0,.48,12.47,6.43,6.43,0,0,0,2.41,4.38q1.93,1.43,7.41,1.43h1.55v2.74H112.17V459h2.5q5.18,0,7.17-1.31a6.07,6.07,0,0,0,2.56-4.08q.57-2.77.57-12.89V401.12q0-10-.62-12.74a5.13,5.13,0,0,0-2.47-3.69q-1.85-1-8.63-1V381H149v2.74h-1.49q-6,0-7.8,1a5.19,5.19,0,0,0-2.47,3.66q-.63,2.68-.62,12.74Z"/><path class="cls-2" d="M207.12,383.74V381H244v2.74H242.3q-6,0-7.8,1a5.19,5.19,0,0,0-2.47,3.66q-.62,2.68-.62,12.74v39.59a106.67,106.67,0,0,0,.45,12.47,6.34,6.34,0,0,0,2.38,4.38q1.93,1.43,7.41,1.43H244v2.74H207.12V459h2.38q5.18,0,7.17-1.31a6,6,0,0,0,2.53-4.08q.54-2.77.54-12.89V401.12q0-9.64-.54-12.44a5.33,5.33,0,0,0-2.38-3.87q-1.85-1.07-8-1.07Z"/><path class="cls-2" d="M319.76,438l-.6,23.75H250.58V459H253q5.18,0,7.17-1.31a6.07,6.07,0,0,0,2.56-4.08q.57-2.77.57-12.89V401.12q0-9.64-.57-12.44a5.45,5.45,0,0,0-2.38-3.87q-1.82-1.07-7.95-1.07h-1.79V381h38.76v2.74h-3.57q-6,0-7.8,1a5.19,5.19,0,0,0-2.47,3.66q-.63,2.68-.62,12.74v42.27q0,8.75.48,11a5.08,5.08,0,0,0,2.59,3.42Q280,459,287,459h6.13q7.44,0,11-1.31T311,452q3.24-4.4,5.92-14Z"/><path class="cls-2" d="M393.4,438l-.6,23.75H324.22V459h2.38q5.18,0,7.17-1.31a6.07,6.07,0,0,0,2.56-4.08q.57-2.77.57-12.89V401.12q0-9.64-.57-12.44a5.45,5.45,0,0,0-2.38-3.87q-1.82-1.07-7.95-1.07h-1.79V381H363v2.74h-3.57q-6,0-7.8,1a5.19,5.19,0,0,0-2.47,3.66q-.63,2.68-.62,12.74v42.27q0,8.75.48,11a5.08,5.08,0,0,0,2.59,3.42q2.11,1.22,9.08,1.22h6.13q7.44,0,11-1.31t6.85-5.72q3.24-4.4,5.92-14Z"/><path class="cls-2" d="M464,436.6h2.86l-1.73,25.12H398.28V459h1.67q6,0,7.77-1.61a7.23,7.23,0,0,0,2.23-4.08q.48-2.47.48-12.59V401.12a89.87,89.87,0,0,0-.51-12.14,5.69,5.69,0,0,0-2.32-4.08q-1.82-1.16-7.65-1.16V381h57.69l1.91,20.12h-2.8q-1.91-8.45-4.67-12a11.82,11.82,0,0,0-6.58-4.46,57.8,57.8,0,0,0-12.26-.92H422v33.88h8.57q5.89,0,8.25-1a5.3,5.3,0,0,0,3.1-3.07q.74-2.05.74-8h2.8v27.62h-2.8q0-6.73-1.13-9a5.46,5.46,0,0,0-3.3-3,27.42,27.42,0,0,0-7.35-.68H422v19.11q0,14.35,1.85,16.88t9.94,2.53h6a28.56,28.56,0,0,0,10.48-1.64q4.11-1.64,7.83-6.73T464,436.6Z"/><path class="cls-2" d="M473.47,381.65l13.28-.66q16.61-.83,22.38-.83,18,0,28,5.48a35.57,35.57,0,0,1,15,14.85,46,46,0,0,1,4.91,21.64,47.07,47.07,0,0,1-2.68,16.22,34.18,34.18,0,0,1-7.35,12.2,31.52,31.52,0,0,1-10.83,7.38,43.88,43.88,0,0,1-11.7,3.16,148.11,148.11,0,0,1-15.6.63H473.11V459h3.33q5.18,0,7.17-1.31a6.07,6.07,0,0,0,2.56-4.08q.57-2.77.57-12.89V401.78q0-9.64-.57-12.47a5.37,5.37,0,0,0-2.38-3.87q-1.82-1-7.95-1h-2.38Zm24.88,1.67v53.94q0,12,.45,15.42a6.29,6.29,0,0,0,2.68,4.85q2.23,1.4,9.44,1.4,10.54,0,17.32-2.89t11.34-11.37q4.55-8.48,4.55-21.64a58.29,58.29,0,0,0-2.65-18.28,33.07,33.07,0,0,0-7.59-13.07,25.73,25.73,0,0,0-11-6.85A54.52,54.52,0,0,0,507.52,383Q503,383,498.35,383.32Z"/></g></svg>