<svg xmlns="http://www.w3.org/2000/svg" xmlns:xlink="http://www.w3.org/1999/xlink" viewBox="0 0 595.28 841.89"><defs><style>.cls-1{fill:url(#Gradiente_sem_nome_13);}.cls-2{fill:#0000f5;}</style><radialGradient id="Gradiente_sem_nome_13" cx="297.64" cy="420.95" r="364.54" gradientUnits="userSpaceOnUse"><stop offset="0" stop-color="#fff" stop-opacity="0"/><stop offset="1" stop-color="#f50000"/></radialGradient></defs><title>marcie cartaz</title><g id="Camada_2" data-name="Camada 2"><rect class="cls-1" width="595.28" height="841.89"/><path class="cls-2" d="M138.07,432.49,151,403H162v1.21h-1.31a8.63,8.63,0,0,0-3.44.43,2.29,2.29,0,0,0-1.09,1.61,33.66,33.66,0,0,0-.27,5.62v17.45a44.06,44.06,0,0,0,.21,5.5,2.84,2.84,0,0,0,1.06,1.93,5.91,5.91,0,0,0,3.27.63H162v1.21h-17v-1.21h1.26a6.09,6.09,0,0,0,3.14-.58,2.68,2.68,0,0,0,1.13-1.8,38.34,38.34,0,0,0,.25-5.68V406.72l-14.09,31.91H135.4l-14.2-31.91v20.84a41.83,41.83,0,0,0,.26,5.83,4.52,4.52,0,0,0,1.63,2.72,6.36,6.36,0,0,0,3.83,1.33v1.21H114.19v-1.21a6.49,6.49,0,0,0,3.71-1.25,4.5,4.5,0,0,0,1.75-2.74,37.75,37.75,0,0,0,.31-6V411.92a36.46,36.46,0,0,0-.25-5.48,2.41,2.41,0,0,0-1-1.71,8.19,8.19,0,0,0-3.5-.47h-1V403H125Z"/><path class="cls-2" d="M183.21,423.07l7-11.78q1.73-2.89,1.73-4.09a2.81,2.81,0,0,0-.92-2,4.6,4.6,0,0,0-3.28-.92V403h11.63v1.21a6.71,6.71,0,0,0-3.9,1.8,28.63,28.63,0,0,0-3.79,5.29l-8,13.3v4.72a35.52,35.52,0,0,0,.28,5.79,2.52,2.52,0,0,0,1.18,1.76,8.24,8.24,0,0,0,3.56.51v1.21H173.55v-1.21h.58a6.16,6.16,0,0,0,3.16-.58,2.63,2.63,0,0,0,1.12-1.8,40.13,40.13,0,0,0,.24-5.68V425l-8.87-14.56a36,36,0,0,0-3.6-5.26,4.8,4.8,0,0,0-3.2-.91V403h14.43v1.21q-4,0-4,1.84a7.92,7.92,0,0,0,1.34,2.94Z"/><path class="cls-2" d="M243.65,420.79H225.07v8.58a44.06,44.06,0,0,0,.21,5.5,2.84,2.84,0,0,0,1.06,1.93,5.85,5.85,0,0,0,3.24.63h.92v1.21h-16v-1.21h.92a6.16,6.16,0,0,0,3.16-.58,2.68,2.68,0,0,0,1.13-1.8,38.34,38.34,0,0,0,.25-5.68V411.92a36.46,36.46,0,0,0-.25-5.48,2.41,2.41,0,0,0-1-1.71,8.19,8.19,0,0,0-3.5-.47h-.66V403h16v1.21h-.66a8.53,8.53,0,0,0-3.41.43,2.29,2.29,0,0,0-1.09,1.61,33.66,33.66,0,0,0-.27,5.62V419h18.58v-7.06a38.16,38.16,0,0,0-.24-5.48,2.37,2.37,0,0,0-1-1.71,8.19,8.19,0,0,0-3.5-.47h-.94V403h16.19v1.21h-.52a8.63,8.63,0,0,0-3.44.43,2.29,2.29,0,0,0-1.09,1.61,33.66,33.66,0,0,0-.27,5.62v17.45a46.5,46.5,0,0,0,.2,5.5A2.77,2.77,0,0,0,250,436.8a5.92,5.92,0,0,0,3.25.63h.81v1.21H237.93v-1.21h1.23a6.09,6.09,0,0,0,3.14-.58,2.63,2.63,0,0,0,1.12-1.8,40.13,40.13,0,0,0,.24-5.68Z"/><path class="cls-2" d="M284.32,403h11.89v1.21a6.42,6.42,0,0,0-3.53,1.06,3.64,3.64,0,0,0-1.43,2,23.4,23.4,0,0,0-.26,4.38v11.84a46.82,46.82,0,0,1-.35,6.74,9.39,9.39,0,0,1-2,4.33,11.52,11.52,0,0,1-4.76,3.39,18.56,18.56,0,0,1-7.09,1.26,18.12,18.12,0,0,1-8-1.61,10.27,10.27,0,0,1-4.7-4.17,14.3,14.3,0,0,1-1.4-6.86l0-3.65V411.92a36.13,36.13,0,0,0-.25-5.48,2.4,2.4,0,0,0-1-1.71,8.17,8.17,0,0,0-3.5-.47H257V403h16.24v1.21h-.71a8.63,8.63,0,0,0-3.44.43A2.28,2.28,0,0,0,268,406.3a33.18,33.18,0,0,0-.28,5.62v11.21a43.43,43.43,0,0,0,.54,8.27,7.23,7.23,0,0,0,3,4.27,11,11,0,0,0,6.64,1.82,14,14,0,0,0,5.92-1.22,9.61,9.61,0,0,0,4-3,8.63,8.63,0,0,0,1.59-3.75,45.54,45.54,0,0,0,.29-6.08V411.26a17.75,17.75,0,0,0-.34-4.23,3.26,3.26,0,0,0-1.47-1.92,7.9,7.9,0,0,0-3.57-.87Z"/><path class="cls-2" d="M300.46,438.27V426.82h1.31Q304,438,312.35,438a7.7,7.7,0,0,0,5.81-2.14,6.75,6.75,0,0,0,2.06-4.79,6.09,6.09,0,0,0-1.81-4.49,22.39,22.39,0,0,0-6.61-3.83,48.82,48.82,0,0,1-6.46-3.21,9.8,9.8,0,0,1-3.4-3.58,9.53,9.53,0,0,1-1.22-4.7,8.42,8.42,0,0,1,2.64-6.34,9.25,9.25,0,0,1,6.68-2.53,12.2,12.2,0,0,1,4.25.73,10.88,10.88,0,0,1,4.09,3,5.62,5.62,0,0,0,1.36-3.12h1.15v9.32h-1.15a12.51,12.51,0,0,0-3.53-6.4,8.39,8.39,0,0,0-5.87-2.34,5.84,5.84,0,0,0-4.66,1.72,5.65,5.65,0,0,0-1.48,3.77,5.44,5.44,0,0,0,1.86,4.17,25.37,25.37,0,0,0,6.64,3.88,69.09,69.09,0,0,1,6.68,3.29,9.33,9.33,0,0,1,3.35,3.45A10.08,10.08,0,0,1,324,429a9.73,9.73,0,0,1-3,7.43,11.4,11.4,0,0,1-8.14,2.86,12.42,12.42,0,0,1-9.76-4.49,8.92,8.92,0,0,0-1.29,3.46Z"/><path class="cls-2" d="M345.18,419.48q6.06.45,9,3a8.19,8.19,0,0,1,2.94,6.43,8.83,8.83,0,0,1-2,5.79,9.2,9.2,0,0,1-5.11,3.17,36.91,36.91,0,0,1-8.33.75h-14v-1.21h1.36a6.17,6.17,0,0,0,3.16-.58,2.64,2.64,0,0,0,1.11-1.8,40.13,40.13,0,0,0,.24-5.68V412a37.9,37.9,0,0,0-.25-5.59,2.43,2.43,0,0,0-1-1.73,8.19,8.19,0,0,0-3.5-.47h-.68V403l5.85-.16,6.67-.21q14.59,0,14.59,8.4a6.9,6.9,0,0,1-2.51,5.56Q350.22,418.74,345.18,419.48Zm-6.43-.5,1.1,0q5.67,0,7.74-1.78t2.07-5.77a9.27,9.27,0,0,0-.81-4.3,5.51,5.51,0,0,0-2.44-2.35,13.29,13.29,0,0,0-5.56-.83q-1,0-2.1.08Zm0,1.29v7.93q0,5.06.18,6.43a3.22,3.22,0,0,0,1,2.07,5,5,0,0,0,3.16.71q4.2,0,6.3-2.15t2.1-6.46q0-4.41-2.37-6.5t-8.36-2.09Q339.8,420.21,338.75,420.26Z"/><path class="cls-2" d="M381.21,425.51H367.69l-.92,2.26q-2,4.91-2,6.4a2.86,2.86,0,0,0,1.09,2.43,4.51,4.51,0,0,0,2.8.83v1.21H358v-1.21a5.71,5.71,0,0,0,3.52-1.67,20.45,20.45,0,0,0,2.78-5.47q.13-.39,1.26-3l10.34-24.69h1l11.89,28.26,1.63,3.73a4.94,4.94,0,0,0,1.48,2,5.41,5.41,0,0,0,2.8.91v1.21h-14v-1.21a10.36,10.36,0,0,0,3.48-.38,1.47,1.47,0,0,0,.91-1.51,15.28,15.28,0,0,0-1.21-3.44Zm-.45-1.18-6.3-15.17-6.27,15.17Z"/><path class="cls-2" d="M427.5,439.45l-25.17-33.35v24.69a16.87,16.87,0,0,0,.3,4,3.42,3.42,0,0,0,1.72,1.78,8.75,8.75,0,0,0,4.25.81v1.21H395.33v-1.21a9.58,9.58,0,0,0,3.88-.93,3,3,0,0,0,1.59-1.61,19.72,19.72,0,0,0,.25-4.09V411.92a25.31,25.31,0,0,0-.38-5.48,2.59,2.59,0,0,0-1.21-1.78,10.61,10.61,0,0,0-3.69-.39V403h10.5l21.07,27.84V409.61a7.94,7.94,0,0,0-.48-3.31,3.42,3.42,0,0,0-2-1.5,10.43,10.43,0,0,0-3.6-.55V403h12.91v1.21a9.38,9.38,0,0,0-3.55.87,3.24,3.24,0,0,0-1.66,1.64,10.44,10.44,0,0,0-.35,3.24v29.44Z"/><path class="cls-2" d="M436,403.34l5.85-.29q7.32-.37,9.87-.37,7.93,0,12.36,2.41a15.67,15.67,0,0,1,6.6,6.55,20.25,20.25,0,0,1,2.17,9.54,20.74,20.74,0,0,1-1.18,7.15,15.06,15.06,0,0,1-3.24,5.38,13.88,13.88,0,0,1-4.78,3.25,19.26,19.26,0,0,1-5.16,1.39,64.79,64.79,0,0,1-6.88.28H435.82v-1.21h1.47a6.17,6.17,0,0,0,3.16-.58,2.68,2.68,0,0,0,1.13-1.8,38,38,0,0,0,.25-5.68V412.21a36.46,36.46,0,0,0-.25-5.5,2.37,2.37,0,0,0-1-1.7,8.38,8.38,0,0,0-3.5-.46h-1Zm11,.73v23.78q0,5.27.2,6.8a2.77,2.77,0,0,0,1.18,2.14q1,.62,4.16.62a19.65,19.65,0,0,0,7.64-1.27,10.53,10.53,0,0,0,5-5,20.07,20.07,0,0,0,2-9.54,25.74,25.74,0,0,0-1.17-8.06,14.61,14.61,0,0,0-3.35-5.76,11.35,11.35,0,0,0-4.83-3,24,24,0,0,0-6.8-.8Q449,403.94,446.95,404.07Z"/><path class="cls-2" d="M475.45,436.66a2.82,2.82,0,0,1,2.81-2.81,2.74,2.74,0,0,1,2,.83,2.83,2.83,0,0,1-2,4.82,2.65,2.65,0,0,1-2-.85A2.78,2.78,0,0,1,475.45,436.66Z"/></g></svg>