<svg xmlns="http://www.w3.org/2000/svg" xmlns:xlink="http://www.w3.org/1999/xlink" viewBox="0 0 595.28 841.89"><defs><style>.cls-1{fill:url(#Gradiente_sem_nome_3);}.cls-2{fill:url(#Gradiente_sem_nome_22);}.cls-3{fill:url(#Gradiente_sem_nome_3-2);}.cls-4{fill:#fff;}</style><linearGradient id="Gradiente_sem_nome_3" x1="595.28" y1="420.94" x2="0" y2="420.94" gradientUnits="userSpaceOnUse"><stop offset="0" stop-color="#f50000"/><stop offset="0.02" stop-color="#ea070b"/><stop offset="0.09" stop-color="#d11826"/><stop offset="0.16" stop-color="#bf2439"/><stop offset="0.23" stop-color="#b52c44"/><stop offset="0.31" stop-color="#b12e48"/><stop offset="0.36" stop-color="#9a2d5a"/><stop offset="0.44" stop-color="#7f2b6f"/><stop offset="0.52" stop-color="#6c2a7d"/><stop offset="0.6" stop-color="#612986"/><stop offset="0.69" stop-color="#5d2989"/><stop offset="0.71" stop-color="#522496"/><stop offset="0.76" stop-color="#3417b8"/><stop offset="0.82" stop-color="#1d0dd3"/><stop offset="0.88" stop-color="#0d06e6"/><stop offset="0.94" stop-color="#0301f1"/><stop offset="1" stop-color="#0000f5"/></linearGradient><radialGradient id="Gradiente_sem_nome_22" cx="422.32" cy="247" r="213.9" gradientUnits="userSpaceOnUse"><stop offset="0" stop-color="#fff"/><stop offset="0.02" stop-color="#fff" stop-opacity="0.93"/><stop offset="0.09" stop-color="#fff" stop-opacity="0.74"/><stop offset="0.17" stop-color="#fff" stop-opacity="0.56"/><stop offset="0.25" stop-color="#fff" stop-opacity="0.41"/><stop offset="0.33" stop-color="#fff" stop-opacity="0.28"/><stop offset="0.43" stop-color="#fff" stop-opacity="0.18"/><stop offset="0.53" stop-color="#fff" stop-opacity="0.1"/><stop offset="0.64" stop-color="#fff" stop-opacity="0.04"/><stop offset="0.77" stop-color="#fff" stop-opacity="0.01"/><stop offset="1" stop-color="#fff" stop-opacity="0"/></radialGradient><linearGradient id="Gradiente_sem_nome_3-2" x1="329.45" y1="654.39" x2="17.46" y2="654.39" xlink:href="#Gradiente_sem_nome_3"/></defs><title>marcie cartaz</title><g id="Camada_2" data-name="Camada 2"><rect class="cls-1" width="595.28" height="841.89"/><rect class="cls-2" x="247.67" width="349.29" height="494"/><circle class="cls-3" cx="173.46" cy="654.39" r="155.99"/><path class="cls-4" d="M68.32,577.41v25.2h-5.8V591.92H47.15v10.69h-5.8v-25.2h5.8v10H62.52v-10Z"/><path class="cls-4" d="M76.85,594.44c.43,2.63,2.27,4.93,6.26,4.93,2.92,0,4.79-1.3,5.54-2.92h4.82c-1.26,4.79-5.62,6.7-10.37,6.7-5.47,0-11.19-3-11.19-10.12s5.65-10.11,11.16-10.11,11.38,3.42,10.8,11.52Zm.18-3.6H88.87c-.58-2.3-2.2-4.18-5.8-4.18A5.86,5.86,0,0,0,77,590.84Z"/><path class="cls-4" d="M127.82,589.9v12.71h-5.44V591.27c0-2.3-1.37-4.28-4.75-4.28s-4.9,2.05-4.9,4.28v11.34h-5.47v-25.2h5.47v8.71a9,9,0,0,1,7.27-3.2C124.95,582.92,127.82,585.58,127.82,589.9Z"/><path class="cls-4" d="M132,578.63a2.52,2.52,0,0,1,2.81-2.59,2.59,2.59,0,1,1,0,5.15A2.51,2.51,0,0,1,132,578.63Zm.11,4.79h5.43v19.19h-5.43Z"/><path class="cls-4" d="M149.14,587.16v8.06c0,3.13,1.15,3.74,5.62,3.28v4.1a16.49,16.49,0,0,1-2.84.29c-6.91,0-8.24-3-8.24-7.78v-8H140.1v-3.74h3.56v-5h5.47v5h5.62v3.74Z"/><path class="cls-4" d="M201.34,589.9v12.71h-5.47V591.27c0-2.3-1-4.28-4.07-4.28s-4.17,2-4.17,4.28v11.34h-5.47V591.27c0-2.3-1-4.28-4.07-4.28s-4.21,2.05-4.21,4.28v11.34h-5.43V583.42h5.43v2.52c.68-1.19,2.34-3,6.26-3,3.35,0,5.58,1.22,6.66,3.35a8.23,8.23,0,0,1,7.05-3.35C198.78,582.92,201.34,585.58,201.34,589.9Z"/><path class="cls-4" d="M226,583.42l-11.52,25.2h-5.4l3-6.59-9-18.61h5.72l5.83,13.07,5.69-13.07Z"/><path class="cls-4" d="M258.5,596.81c0,4.39-3.74,6.33-10.69,6.33-6.77,0-11-2.12-11-6.44h5.94c0,1.91,2.27,2.74,5.4,2.74s4.72-.58,4.72-2.05c0-1.73-2.38-1.94-7.49-2.81s-7.81-1.91-7.81-5.72,3.42-5.94,9.9-5.94c6.77,0,10.15,2.52,10.15,6h-5.51c0-1.22-1.4-2.45-4.72-2.45-3,0-4.61.61-4.61,2.09,0,1.66,3.2,1.84,6.62,2.45C254.83,592,258.5,592.38,258.5,596.81Z"/><path class="cls-4" d="M283.2,593c0,7.24-5.83,10.12-11.45,10.12s-11.45-2.88-11.45-10.12,5.87-10.11,11.45-10.11S283.2,585.8,283.2,593Zm-5.11,0c0-3.38-1.73-6.37-6.33-6.37s-6.3,3-6.3,6.37,1.69,6.34,6.3,6.34S278.09,596.38,278.09,593Z"/><path class="cls-4" d="M307,589.9v12.71h-5.47V591.27c0-2.3-1.33-4.28-4.72-4.28s-4.9,2.05-4.9,4.28v11.34h-5.47V583.42h5.47v2.7a8.85,8.85,0,0,1,7.27-3.2C304.12,582.92,307,585.58,307,589.9Z"/><path class="cls-4" d="M60.87,633.35v12.45H55.39v-2.56c-.83,1.26-3.6,3.1-7.88,3.1-4.5,0-7.59-1.87-7.59-5.65,0-4,2.09-7.27,15.48-6.44v-.9c0-2-.9-3.49-4.86-3.49-3.31,0-4.36,1-4.64,2.3H40.78c.61-4.25,4.5-6,9.75-6C56,626.12,60.87,627.7,60.87,633.35Zm-5.47,4.14c-7.27-.4-10,.29-10,3,0,1.8,1.33,2.52,3.71,2.52,3,0,5.25-1.15,6.26-2.84Z"/><path class="cls-4" d="M85.74,633.1v12.71H80.27V634.47c0-2.3-1.33-4.28-4.72-4.28s-4.9,2.05-4.9,4.28v11.34H65.19V626.62h5.47v2.7a8.85,8.85,0,0,1,7.27-3.2C82.86,626.12,85.74,628.78,85.74,633.1Z"/><path class="cls-4" d="M111.48,620.61v25.2H106v-2.38c-1.4,1.8-3.64,2.92-6.88,2.92-5.58,0-10.15-3.6-10.15-10.12s4.57-10.11,10.15-10.11c3.24,0,5.47,1.12,6.88,2.92v-8.42Zm-4.79,15.62c0-4-2.41-6.37-6.34-6.37s-6.23,2.34-6.23,6.37,2.27,6.34,6.23,6.34S106.69,640.26,106.69,636.23Z"/><path class="cls-4" d="M146.44,633.1v12.71H141V634.47c0-2.3-1.37-4.28-4.75-4.28s-4.9,2.05-4.9,4.28v11.34h-5.47v-25.2h5.47v8.71a9,9,0,0,1,7.27-3.2C143.56,626.12,146.44,628.78,146.44,633.1Z"/><path class="cls-4" d="M154.61,637.64c.43,2.63,2.27,4.93,6.26,4.93,2.92,0,4.79-1.3,5.54-2.92h4.82c-1.26,4.79-5.62,6.7-10.37,6.7-5.47,0-11.19-3-11.19-10.12s5.65-10.11,11.16-10.11,11.38,3.42,10.8,11.52Zm.18-3.6h11.84c-.58-2.3-2.2-4.18-5.8-4.18A5.86,5.86,0,0,0,154.79,634Z"/><path class="cls-4" d="M205.58,633.1v12.71h-5.44V634.47c0-2.3-1.37-4.28-4.75-4.28s-4.9,2.05-4.9,4.28v11.34H185v-25.2h5.47v8.71a9,9,0,0,1,7.27-3.2C202.71,626.12,205.58,628.78,205.58,633.1Z"/><path class="cls-4" d="M209.8,621.83a2.52,2.52,0,0,1,2.81-2.59,2.59,2.59,0,1,1,0,5.15A2.51,2.51,0,0,1,209.8,621.83Zm.11,4.79h5.43v19.19h-5.43Z"/><path class="cls-4" d="M226.9,630.37v8.06c0,3.13,1.15,3.74,5.62,3.28v4.1a16.49,16.49,0,0,1-2.84.29c-6.91,0-8.24-3-8.24-7.78v-8h-3.56v-3.74h3.56v-5h5.47v5h5.62v3.74Z"/><path class="cls-4" d="M73.9,676.3V689H68.42V677.67c0-2.3-1-4.28-4.07-4.28s-4.17,2-4.17,4.28V689H54.71V677.67c0-2.3-1-4.28-4.07-4.28s-4.21,2.05-4.21,4.28V689H41V669.82h5.43v2.52c.68-1.19,2.34-3,6.26-3,3.35,0,5.58,1.22,6.66,3.35a8.23,8.23,0,0,1,7.05-3.35C71.34,669.32,73.9,672,73.9,676.3Z"/><path class="cls-4" d="M98.59,669.82,87.07,695h-5.4l3-6.59-9-18.61h5.72l5.83,13.07,5.69-13.07Z"/><path class="cls-4" d="M132.58,669.82v17.39c0,7.49-6.23,8.5-11.73,8.5-6.41,0-10.08-2.2-10.44-5.87h5.11c.4,1.19,2.3,2.09,5.33,2.09,4.36,0,6.3-1.26,6.3-4.72v-1.76c-1.44,1.55-3.64,2.38-6.87,2.38-5.62,0-10.15-2.56-10.15-9.07s4.54-9.43,10.15-9.43a8.55,8.55,0,0,1,6.88,3v-2.52Zm-4.75,8.93c0-3.64-2.41-5.65-6.37-5.65s-6.19,2.05-6.19,5.65,2.27,5.65,6.19,5.65S127.83,682.35,127.83,678.75Z"/><path class="cls-4" d="M152.38,669.64v5h-.18a9.91,9.91,0,0,0-3.64-.61c-4.54,0-6.19,2.84-6.19,5.83V689H136.9V669.82h5.47v3.53a8.23,8.23,0,0,1,7.16-4A11.05,11.05,0,0,1,152.38,669.64Z"/><path class="cls-4" d="M174.41,676.55V689h-5.47v-2.56c-.83,1.26-3.6,3.1-7.88,3.1-4.5,0-7.59-1.87-7.59-5.65,0-4,2.09-7.27,15.48-6.44v-.9c0-2-.9-3.49-4.86-3.49-3.31,0-4.36,1-4.64,2.3h-5.11c.61-4.25,4.5-6,9.75-6C169.59,669.32,174.41,670.9,174.41,676.55Zm-5.47,4.14c-7.27-.4-10,.29-10,3,0,1.8,1.33,2.52,3.71,2.52,3,0,5.25-1.15,6.26-2.84Z"/><path class="cls-4" d="M199.28,676.3V689h-5.47V677.67c0-2.3-1.33-4.28-4.72-4.28s-4.9,2.05-4.9,4.28V689h-5.47V669.82h5.47v2.7a8.85,8.85,0,0,1,7.27-3.2C196.41,669.32,199.28,672,199.28,676.3Z"/><path class="cls-4" d="M225,663.81V689h-5.47v-2.38c-1.4,1.8-3.64,2.92-6.87,2.92-5.58,0-10.15-3.6-10.15-10.12s4.57-10.11,10.15-10.11c3.24,0,5.47,1.12,6.88,2.92v-8.42Zm-4.79,15.62c0-4-2.41-6.37-6.34-6.37s-6.23,2.34-6.23,6.37,2.27,6.34,6.23,6.34S220.24,683.46,220.24,679.43Z"/><path class="cls-4" d="M249.22,683.21c0,4.39-3.74,6.33-10.69,6.33-6.77,0-11-2.12-11-6.44h5.94c0,1.91,2.27,2.74,5.4,2.74s4.72-.58,4.72-2.05c0-1.73-2.38-1.94-7.49-2.81s-7.81-1.91-7.81-5.72,3.42-5.94,9.9-5.94c6.77,0,10.15,2.52,10.15,6h-5.51c0-1.22-1.4-2.45-4.72-2.45-3,0-4.61.61-4.61,2.09,0,1.66,3.2,1.84,6.62,2.45C245.55,678.39,249.22,678.79,249.22,683.21Z"/><path class="cls-4" d="M273.91,679.43c0,7.24-5.83,10.12-11.45,10.12S251,686.67,251,679.43s5.87-10.11,11.45-10.11S273.91,672.2,273.91,679.43Zm-5.11,0c0-3.38-1.73-6.37-6.33-6.37s-6.3,3-6.3,6.37,1.69,6.34,6.3,6.34S268.8,682.78,268.8,679.43Z"/><path class="cls-4" d="M297.71,676.3V689h-5.47V677.67c0-2.3-1.33-4.28-4.72-4.28s-4.9,2.05-4.9,4.28V689h-5.47V669.82h5.47v2.7a8.85,8.85,0,0,1,7.27-3.2C294.83,669.32,297.71,672,297.71,676.3Z"/><path class="cls-4" d="M60.87,719.75v12.45H55.39v-2.56c-.83,1.26-3.6,3.1-7.88,3.1-4.5,0-7.59-1.87-7.59-5.65,0-4,2.09-7.27,15.48-6.44v-.9c0-2-.9-3.49-4.86-3.49-3.31,0-4.36,1-4.64,2.3H40.78c.61-4.25,4.5-6,9.75-6C56,712.52,60.87,714.1,60.87,719.75Zm-5.47,4.14c-7.27-.4-10,.29-10,3,0,1.8,1.33,2.52,3.71,2.52,3,0,5.25-1.15,6.26-2.84Z"/><path class="cls-4" d="M85.74,719.5v12.71H80.27V720.87c0-2.3-1.33-4.28-4.72-4.28s-4.9,2.05-4.9,4.28v11.34H65.19V713h5.47v2.7a8.85,8.85,0,0,1,7.27-3.2C82.86,712.52,85.74,715.18,85.74,719.5Z"/><path class="cls-4" d="M111.48,707v25.2H106v-2.38c-1.4,1.8-3.64,2.92-6.88,2.92-5.58,0-10.15-3.6-10.15-10.12s4.57-10.11,10.15-10.11c3.24,0,5.47,1.12,6.88,2.92V707Zm-4.79,15.62c0-4-2.41-6.37-6.34-6.37s-6.23,2.34-6.23,6.37S96.4,729,100.36,729,106.69,726.66,106.69,722.63Z"/><path class="cls-4" d="M132,707v25.2h-5.8V707Z"/><path class="cls-4" d="M167.35,719.5v12.71h-5.43V720.87c0-2.3-1.37-4.28-4.75-4.28s-4.9,2.05-4.9,4.28v11.34H146.8V707h5.47v8.71a9,9,0,0,1,7.27-3.2C164.47,712.52,167.35,715.18,167.35,719.5Z"/><path class="cls-4" d="M171.57,708.23a2.52,2.52,0,0,1,2.81-2.59,2.59,2.59,0,1,1,0,5.15A2.51,2.51,0,0,1,171.57,708.23Zm.11,4.79h5.43v19.19h-5.43Z"/><path class="cls-4" d="M188.67,716.76v8.06c0,3.13,1.15,3.74,5.62,3.28v4.1a16.49,16.49,0,0,1-2.84.29c-6.91,0-8.24-3-8.24-7.78v-8h-3.56V713h3.56v-5h5.47v5h5.62v3.74Z"/><path class="cls-4" d="M228.52,719.5v12.71h-5.44V720.87c0-2.3-1.37-4.28-4.75-4.28s-4.9,2.05-4.9,4.28v11.34H208V707h5.47v8.71a9,9,0,0,1,7.27-3.2C225.64,712.52,228.52,715.18,228.52,719.5Z"/><path class="cls-4" d="M232.73,708.23a2.52,2.52,0,0,1,2.81-2.59,2.59,2.59,0,1,1,0,5.15A2.51,2.51,0,0,1,232.73,708.23Zm.11,4.79h5.43v19.19h-5.43Z"/><path class="cls-4" d="M275.49,719.5v12.71H270V720.87c0-2.3-1-4.28-4.07-4.28s-4.17,2-4.17,4.28v11.34h-5.47V720.87c0-2.3-1-4.28-4.07-4.28s-4.21,2.05-4.21,4.28v11.34H242.6V713H248v2.52c.68-1.19,2.34-3,6.26-3,3.35,0,5.58,1.22,6.66,3.35a8.23,8.23,0,0,1,7.05-3.35C272.94,712.52,275.49,715.18,275.49,719.5Z"/><path class="cls-4" d="M285.15,729.72a3,3,0,1,1-3-3.06A3,3,0,0,1,285.15,729.72Z"/></g></svg>