<svg xmlns="http://www.w3.org/2000/svg" xmlns:xlink="http://www.w3.org/1999/xlink" viewBox="0 0 595.28 841.89"><defs><style>.cls-1{fill:url(#Gradiente_sem_nome_33);}.cls-2{opacity:0.5;}.cls-3{fill:#fff;}</style><linearGradient id="Gradiente_sem_nome_33" y1="420.95" x2="595.28" y2="420.95" gradientUnits="userSpaceOnUse"><stop offset="0" stop-color="#b12e48"/><stop offset="1"/></linearGradient></defs><title>marcie cartaz</title><g id="Camada_2" data-name="Camada 2"><rect class="cls-1" width="595.28" height="841.89"/><image class="cls-2" width="595" height="842" transform="translate(0.14 -0.06)" xlink:href="../Sem Título-2.png"/><path class="cls-3" d="M82.58,778.67v12.2H80.16v-3a10.39,10.39,0,0,1-8.28,3.53c-5,0-7.49-2.34-7.49-5.62s1.8-6,9-6c2.38,0,4.46.11,6.77.22v-1.3c0-3.92-1.69-5.58-6.23-5.58-4.1,0-5.65,1.51-6.12,3.71H65.41c.4-3.64,3.78-5.65,8.53-5.65S82.58,772.63,82.58,778.67Zm-2.41,7.16V782c-2.48-.14-4.21-.22-6.41-.22-4.18,0-6.87.94-6.87,3.92,0,2.7,2.34,3.78,5.4,3.78A9.76,9.76,0,0,0,80.16,785.84Z"/><path class="cls-3" d="M105.83,778.78v12.09h-2.41V779.79c0-4.36-2-6.44-6.33-6.44-4.54,0-6.34,3.24-6.37,6.44v11.09H88.34V771.69h2.38v3.38a8.68,8.68,0,0,1,7.45-3.92C103,771.15,105.83,774.32,105.83,778.78Z"/><path class="cls-3" d="M129.92,765.68v25.2H127.5V787.6a8.84,8.84,0,0,1-7.7,3.78c-5.62,0-9.65-3.42-9.65-10.11s4-10.12,9.65-10.12a8.86,8.86,0,0,1,7.7,3.92v-9.4Zm-2.05,15.59c0-4.28-2.2-8.17-7.74-8.17s-7.56,3.82-7.56,8.17,2,8.17,7.56,8.17S127.86,785.59,127.86,781.27Z"/><path class="cls-3" d="M167,778.17v12.71h-6.48V779.61c0-2.12-1.33-3.74-4.21-3.74s-4.39,1.62-4.39,3.74v11.27H145.4v-25.2h6.48v8.75a8.62,8.62,0,0,1,7.05-3.28C163.86,771.15,167,773.85,167,778.17Z"/><path class="cls-3" d="M175.78,782.71c.5,2.45,2.27,4.25,5.58,4.25,2.81,0,4.25-1.08,5-2.59h5.76c-1.22,5.11-5.94,7-10.8,7-5.51,0-11.52-2.88-11.52-10.11s6-10.12,11.52-10.12,11.66,3.28,11.09,11.55ZM176,779H186.4c-.61-2-2.12-3.38-5-3.38S176.75,777,176,779Z"/><path class="cls-3" d="M240,771.69l-7.88,19.19h-5.69l-4.57-12.09-4.54,12.09H211.6l-7.92-19.19h6.73l4.25,11.88,4.5-11.88h5.36L229,783.57l4.28-11.88Z"/><path class="cls-3" d="M261.82,778.75v12.13h-6.48v-2.59c-.72,1.15-3.1,3.1-7.42,3.1-4.5,0-8-1.8-8-5.54,0-4,1.94-7.6,15.37-6.62v-.47c0-1.87-.47-3.49-4.36-3.49-3.17,0-4,1-4.28,2.27H240.9c.54-4.71,4.54-6.37,10.08-6.37S261.82,772.3,261.82,778.75Zm-6.48,4.14c-6.08-.29-9.07,0-9.07,2.66,0,1.37,1.22,2.23,3.46,2.23a6.78,6.78,0,0,0,5.62-2.66Z"/><path class="cls-3" d="M287,784.79c0,4.64-4.28,6.59-11.55,6.59-7.7,0-11.48-2.3-11.48-6.73l6.84,0c0,2.16,2.3,2.74,5,2.74,3,0,4.36-.5,4.36-1.87,0-1.73-3.24-1.8-7.42-2.45-4.9-.76-8.24-1.66-8.24-5.58s3.53-6.37,10.58-6.37c7.81,0,10.91,2.77,10.91,6.37l-6.59,0c0-1.26-1.51-2.41-4.39-2.41s-4.1.68-4.1,1.91,2.84,1.62,6.12,2.05C282,779.65,287,779.9,287,784.79Z"/><path class="cls-3" d="M309.23,781l-5.44,5v4.79h-2.37v-25.2h2.38v17.13l12-11.12h3.53l-8.32,7.7,8.86,11.48h-3Z"/><path class="cls-3" d="M340.95,778.78v12.09h-2.41V779.79c0-4.36-2-6.44-6.33-6.44-4.54,0-6.34,3.24-6.37,6.44v11.09h-2.37V771.69h2.38v3.38a8.68,8.68,0,0,1,7.45-3.92C338.14,771.15,340.95,774.32,340.95,778.78Z"/><path class="cls-3" d="M365.89,781.27c0,6.91-4.72,10.11-10.33,10.11s-10.29-3.2-10.29-10.11,4.72-10.12,10.29-10.12S365.89,774.39,365.89,781.27Zm-2.41,0c0-4.86-2.77-8.17-7.92-8.17s-7.92,3.31-7.92,8.17,2.77,8.17,7.92,8.17S363.48,786.13,363.48,781.27Z"/><path class="cls-3" d="M386.66,784h2.45c-1.12,5-5.26,7.34-10,7.34-5.58,0-10.29-3.2-10.29-10.11s4.72-10.12,10.29-10.12c4.79,0,8.93,2.38,10,7.34h-2.45c-.86-3.31-3.49-5.4-7.59-5.4-5.15,0-7.92,3.31-7.92,8.17s2.77,8.17,7.92,8.17C383.17,789.44,385.8,787.39,386.66,784Z"/><path class="cls-3" d="M401.25,781l-5.44,5v4.79h-2.37v-25.2h2.38v17.13l12-11.12h3.53l-8.32,7.7,8.86,11.48h-3Z"/><path class="cls-3" d="M434.15,782.27h-18c.4,4.28,3.35,7.16,8.13,7.16,3.71,0,5.94-1.55,7.05-4.1h2.41c-1.37,4-4.93,6-9.47,6-5.58,0-10.58-3.2-10.58-10.11s4.75-10.12,10.37-10.12C430.08,771.15,434.58,775,434.15,782.27Zm-2.34-2.05c-.25-4.07-3-7.13-7.78-7.13s-7.52,2.84-7.92,7.13Z"/><path class="cls-3" d="M456.83,765.68v25.2h-2.41V787.6a8.84,8.84,0,0,1-7.7,3.78c-5.62,0-9.65-3.42-9.65-10.11s4-10.12,9.65-10.12a8.85,8.85,0,0,1,7.7,3.92v-9.4Zm-2.05,15.59c0-4.28-2.2-8.17-7.74-8.17s-7.56,3.82-7.56,8.17,2,8.17,7.56,8.17S454.78,785.59,454.78,781.27Z"/><path class="cls-3" d="M492.58,781.27c0,6.91-4.72,10.11-10.33,10.11S472,788.18,472,781.27s4.72-10.12,10.29-10.12S492.58,774.39,492.58,781.27Zm-2.41,0c0-4.86-2.77-8.17-7.92-8.17s-7.92,3.31-7.92,8.17,2.77,8.17,7.92,8.17S490.16,786.13,490.16,781.27Z"/><path class="cls-3" d="M514.39,771.69v19.19H512v-3.42a8.68,8.68,0,0,1-7.45,3.92c-4.86,0-7.67-3.17-7.67-7.59V771.69h2.41v11.05c0,4.36,2,6.44,6.34,6.44,4.54,0,6.33-3.24,6.37-6.41V771.69Z"/><path class="cls-3" d="M524.44,773.71V784.4c0,4.21,1.3,5,6.44,4.5v2a8.5,8.5,0,0,1-2.41.25c-4.57,0-6.44-1.69-6.44-6.77V773.71h-4.39v-2H522v-5h2.41v5h6.44v2Z"/><path class="cls-3" d="M73.34,291.08l-.87,2.77a4.17,4.17,0,0,0-2,.51,3.54,3.54,0,0,0-1.31,1.4,15.54,15.54,0,0,0-1,2.66l-7.64,25.16a9.56,9.56,0,0,0-.54,2.65,2.32,2.32,0,0,0,1.25,2.21,6.06,6.06,0,0,0,2.93.68l-.78,2.77h-17l.87-2.77a3.62,3.62,0,0,0,3.07-1.19,10.79,10.79,0,0,0,1.56-3.39l7.7-25.13a11.53,11.53,0,0,0,.54-2.65,2.26,2.26,0,0,0-1.1-2.27,7,7,0,0,0-2.42-.65l.87-2.77Z"/><path class="cls-3" d="M119.23,323.94a20.73,20.73,0,0,1-4.66,6,9.07,9.07,0,0,1-6.08,2.41,5.36,5.36,0,0,1-3.69-1.1,3.52,3.52,0,0,1-1.22-2.72,5.51,5.51,0,0,1,.17-1.37q.17-.65.62-2.12l2.29-7.64a13.38,13.38,0,0,0,.69-3.64,3,3,0,0,0-.2-1.08,1.68,1.68,0,0,0-.6-.8,1.71,1.71,0,0,0-1-.29q-2.35,0-5.31,3.75a30.41,30.41,0,0,0-4.29,6.91q-2.53,6.2-2.92,7.64l-.54,2H85.31l10.29-33.7a9.82,9.82,0,0,0,.69-2.59,1.36,1.36,0,0,0-.86-1.4,6.7,6.7,0,0,0-2.42-.35h-.9l.9-2.77a57.93,57.93,0,0,0,10.11-.72h2l-7.82,25.58q2.08-2.86,3.61-4.66a17.09,17.09,0,0,1,4-3.36,10.16,10.16,0,0,1,5.49-1.55,5.78,5.78,0,0,1,3.63,1.1,3.37,3.37,0,0,1,1.43,2.78,19.23,19.23,0,0,1-1.11,4.94l-3,9.93a8.82,8.82,0,0,0-.51,2.2,1.47,1.47,0,0,0,.17.66.6.6,0,0,0,.59.33q1.81,0,4.48-4.36Z"/><path class="cls-3" d="M138,324.66A20.63,20.63,0,0,1,134.3,330a8.12,8.12,0,0,1-6.26,2.74,5.19,5.19,0,0,1-3.79-1.25,4,4,0,0,1-1.26-3,15.51,15.51,0,0,1,1.11-4.84L128,313.07a6.79,6.79,0,0,0,.57-2,.93.93,0,0,0-.87-.87q-1,0-2.24,1.59a16.68,16.68,0,0,0-1.82,2.86H121a15.55,15.55,0,0,1,4.62-6.15,9.31,9.31,0,0,1,5.67-2.18,5.35,5.35,0,0,1,3.3,1,3.09,3.09,0,0,1,1.31,2.6,9.71,9.71,0,0,1-.66,3.46L130.51,326a6.38,6.38,0,0,0-.48,2.11,1.1,1.1,0,0,0,.29.71.81.81,0,0,0,.62.35,2.73,2.73,0,0,0,1.87-1,17.36,17.36,0,0,0,2.41-3.55Zm2.23-30.42A3.8,3.8,0,0,1,139,297a3.73,3.73,0,0,1-2.72,1.16,3.77,3.77,0,0,1-2.81-1.16,3.85,3.85,0,0,1-1.13-2.78,3.94,3.94,0,0,1,5.91-3.36,3.94,3.94,0,0,1,1.4,1.38A3.77,3.77,0,0,1,140.2,294.24Z"/><path class="cls-3" d="M160.51,307.24l-.84,2.77h-6l-4.54,14.87a8.71,8.71,0,0,0-.51,2.32,1.81,1.81,0,0,0,.42,1.16,1.3,1.3,0,0,0,1.05.53,3.84,3.84,0,0,0,3.07-1.7,25.19,25.19,0,0,0,2.38-3.69h2.83a19.2,19.2,0,0,1-3.81,5.82,11.65,11.65,0,0,1-4,2.77,9.94,9.94,0,0,1-3.39.68,5.33,5.33,0,0,1-4-1.5,5.54,5.54,0,0,1-1.44-4,17,17,0,0,1,.9-4.66L146.55,310h-5.63l.87-2.77h5.6l2.77-9.18h7.16l-2.77,9.18Z"/><path class="cls-3" d="M209.78,323.94a20.73,20.73,0,0,1-4.66,6A9.07,9.07,0,0,1,199,332.3a5.36,5.36,0,0,1-3.69-1.1,3.52,3.52,0,0,1-1.22-2.72,5.51,5.51,0,0,1,.17-1.37q.17-.65.62-2.12l2.29-7.64a13.38,13.38,0,0,0,.69-3.64,3,3,0,0,0-.2-1.08,1.68,1.68,0,0,0-.6-.8,1.71,1.71,0,0,0-1-.29q-2.35,0-5.31,3.75a30.41,30.41,0,0,0-4.29,6.91q-2.53,6.2-2.92,7.64l-.54,2h-7.16l10.29-33.7a9.82,9.82,0,0,0,.69-2.59,1.36,1.36,0,0,0-.86-1.4,6.7,6.7,0,0,0-2.42-.35h-.9l.9-2.77a57.93,57.93,0,0,0,10.11-.72h2l-7.82,25.58q2.08-2.86,3.61-4.66a17.09,17.09,0,0,1,4-3.36,10.16,10.16,0,0,1,5.49-1.55,5.78,5.78,0,0,1,3.63,1.1,3.37,3.37,0,0,1,1.43,2.78,19.23,19.23,0,0,1-1.11,4.94l-3,9.93a8.82,8.82,0,0,0-.51,2.2,1.47,1.47,0,0,0,.17.66.6.6,0,0,0,.59.33q1.81,0,4.48-4.36Z"/><path class="cls-3" d="M228.52,324.66a20.63,20.63,0,0,1-3.67,5.36,8.12,8.12,0,0,1-6.26,2.74,5.19,5.19,0,0,1-3.79-1.25,4,4,0,0,1-1.26-3,15.51,15.51,0,0,1,1.11-4.84l3.88-10.62a6.79,6.79,0,0,0,.57-2,.93.93,0,0,0-.87-.87q-1,0-2.24,1.59a16.68,16.68,0,0,0-1.82,2.86h-2.65a15.55,15.55,0,0,1,4.62-6.15,9.31,9.31,0,0,1,5.67-2.18,5.35,5.35,0,0,1,3.3,1,3.09,3.09,0,0,1,1.31,2.6,9.71,9.71,0,0,1-.66,3.46L221.06,326a6.38,6.38,0,0,0-.48,2.11,1.1,1.1,0,0,0,.29.71.81.81,0,0,0,.62.35,2.73,2.73,0,0,0,1.87-1,17.36,17.36,0,0,0,2.41-3.55Zm2.23-30.42a3.8,3.8,0,0,1-1.16,2.78,3.73,3.73,0,0,1-2.72,1.16,3.77,3.77,0,0,1-2.81-1.16,3.85,3.85,0,0,1-1.13-2.78,3.94,3.94,0,0,1,5.91-3.36,3.94,3.94,0,0,1,1.4,1.38A3.77,3.77,0,0,1,230.75,294.24Z"/><path class="cls-3" d="M287.75,323.94q-4.54,8.37-11,8.37a4.85,4.85,0,0,1-3.57-1.26,3.92,3.92,0,0,1-1.28-2.86,12.13,12.13,0,0,1,.66-3.31l2.35-7.52a15.27,15.27,0,0,0,.81-3.46,2.26,2.26,0,0,0-.66-1.72,2.42,2.42,0,0,0-1.75-.63q-2.53,0-5.4,2.78a30.63,30.63,0,0,0-5.34,7.25,46.7,46.7,0,0,0-3.82,8.89l-.42,1.41h-7.16l4.63-15.11a11.52,11.52,0,0,0,.54-2.89,2.69,2.69,0,0,0-.51-1.67,2,2,0,0,0-1.69-.68,6.9,6.9,0,0,0-4.26,1.78,21.6,21.6,0,0,0-4.18,4.63,47.33,47.33,0,0,0-3.61,6.24,50.48,50.48,0,0,0-2.69,6.7l-.3,1H231.9l5.27-17.24a19.89,19.89,0,0,0,.84-3.52,1,1,0,0,0-.32-.77,1,1,0,0,0-.68-.29,2.24,2.24,0,0,0-1.08.41,6,6,0,0,0-1.46,1.43,16.86,16.86,0,0,0-1.7,2.86h-2.65a17.4,17.4,0,0,1,3.75-5.82,8.24,8.24,0,0,1,6.18-2.57,6.42,6.42,0,0,1,2.38.45,3.87,3.87,0,0,1,1.82,1.44,4.34,4.34,0,0,1,.68,2.5,21.18,21.18,0,0,1-1,5.12l-.87,2.89a41.33,41.33,0,0,1,3.63-5.21,27.72,27.72,0,0,1,4-4,16.1,16.1,0,0,1,4-2.44,10,10,0,0,1,3.76-.77,6.27,6.27,0,0,1,4.11,1.29,4.24,4.24,0,0,1,1.58,3.46,18.91,18.91,0,0,1-.93,4.75l-.81,2.65a41,41,0,0,1,4.11-5.78,22.52,22.52,0,0,1,5.24-4.54,11.48,11.48,0,0,1,6.18-1.84,5.87,5.87,0,0,1,3.19.78,4.89,4.89,0,0,1,1.81,1.91,4.82,4.82,0,0,1,.57,2.18,7.35,7.35,0,0,1-.15,1.58q-.15.68-.78,2.78l-2.89,9.33a10.39,10.39,0,0,0-.57,2.38q0,1,.93,1a3.89,3.89,0,0,0,2.08-.92,11.4,11.4,0,0,0,2.74-3.45Z"/><path class="cls-3" d="M93.53,385.44a18.89,18.89,0,0,1-1.44,6.94,28.5,28.5,0,0,1-4,7,22,22,0,0,1-5.85,5.34,12.63,12.63,0,0,1-6.7,2q-4.84,0-7-4.94a48.14,48.14,0,0,1-6,3.34,15.15,15.15,0,0,1-6.56,1.59,7.14,7.14,0,0,1-4.75-1.7,5.83,5.83,0,0,1-2-4.71,8,8,0,0,1,.78-3.57,11.47,11.47,0,0,1,2-2.92q1.25-1.31,3.42-3.2a23.51,23.51,0,0,0,1.76-1.69,17.17,17.17,0,0,0,1.2-1.34q.23-.32.66-1t.68-1.17q-1.14.63-2,1a4.51,4.51,0,0,1-1.87.39,6.34,6.34,0,0,1-2.95-.87,4.89,4.89,0,0,0-1.93-.66q-1.23,0-1.84,1.78H46.7q2.2-6.71,6.17-6.71,1.84,0,4.48,2.17a3.28,3.28,0,0,0,1.87.78,1.32,1.32,0,0,0,1.11-.47,4.66,4.66,0,0,0,.66-1.43,1.27,1.27,0,0,1,1.29-1.05,1.09,1.09,0,0,1,1.23,1.23,10.66,10.66,0,0,1-1.31,4.15,32.71,32.71,0,0,1-2.09,3.85l-1.91,3.31a21.23,21.23,0,0,0-1.13,2.23,13,13,0,0,0-.66,2,8.1,8.1,0,0,0-.24,1.94,3.17,3.17,0,0,0,1.07,2.63,3.81,3.81,0,0,0,2.45.86q3.82,0,8.25-3.19a15.65,15.65,0,0,1,.3-7.85,26.65,26.65,0,0,1,1.91-5.25,14.43,14.43,0,0,1,3-4.23A5.48,5.48,0,0,1,77,380.32a3.25,3.25,0,0,1,2.83,1.56,6,6,0,0,1,1.05,3.43q0,5.9-6.89,12.07,1.69,4.75,5.3,4.75A6.92,6.92,0,0,0,84,400.21a13.72,13.72,0,0,0,3.4-4.75,13.23,13.23,0,0,0,1.25-5.33,23.06,23.06,0,0,0-.84-4.75,6.06,6.06,0,0,1-.18-1.47,3.77,3.77,0,0,1,.86-2.65,2.61,2.61,0,0,1,2-.93,2.54,2.54,0,0,1,2.21,1.38A7,7,0,0,1,93.53,385.44Zm-15-.06a3.13,3.13,0,0,0-.48-1.7,1.54,1.54,0,0,0-1.38-.77q-1.63,0-2.69,2.36a14.54,14.54,0,0,0-1.07,6,18.08,18.08,0,0,0,.36,3.55,31.36,31.36,0,0,0,3.61-4.35A8.76,8.76,0,0,0,78.51,385.38Z"/><path class="cls-3" d="M113.63,398.62A20.63,20.63,0,0,1,110,404a8.12,8.12,0,0,1-6.26,2.74,5.19,5.19,0,0,1-3.79-1.25,4,4,0,0,1-1.26-3,15.51,15.51,0,0,1,1.11-4.84L103.64,387a6.79,6.79,0,0,0,.57-2,.93.93,0,0,0-.87-.87q-1,0-2.24,1.59a16.68,16.68,0,0,0-1.82,2.86H96.63a15.55,15.55,0,0,1,4.62-6.15,9.31,9.31,0,0,1,5.67-2.18,5.35,5.35,0,0,1,3.3,1,3.09,3.09,0,0,1,1.31,2.6,9.71,9.71,0,0,1-.66,3.46L106.17,400a6.38,6.38,0,0,0-.48,2.11,1.1,1.1,0,0,0,.29.71.81.81,0,0,0,.62.35,2.73,2.73,0,0,0,1.87-1,17.36,17.36,0,0,0,2.41-3.55Zm2.23-30.42A3.8,3.8,0,0,1,114.7,371a3.73,3.73,0,0,1-2.72,1.16,3.77,3.77,0,0,1-2.81-1.16,3.85,3.85,0,0,1-1.13-2.78,3.94,3.94,0,0,1,5.91-3.36,3.94,3.94,0,0,1,1.4,1.38A3.77,3.77,0,0,1,115.86,368.19Z"/><path class="cls-3" d="M136.17,381.19l-.84,2.77h-6l-4.54,14.87a8.71,8.71,0,0,0-.51,2.32,1.81,1.81,0,0,0,.42,1.16,1.3,1.3,0,0,0,1.05.53,3.84,3.84,0,0,0,3.07-1.7,25.19,25.19,0,0,0,2.38-3.69H134a19.2,19.2,0,0,1-3.81,5.82,11.65,11.65,0,0,1-4,2.77,9.94,9.94,0,0,1-3.39.68,5.33,5.33,0,0,1-4-1.5,5.54,5.54,0,0,1-1.44-4,17,17,0,0,1,.9-4.66L122.21,384h-5.63l.87-2.77H123l2.77-9.18H133l-2.77,9.18Z"/><path class="cls-3" d="M170,397.89a20.73,20.73,0,0,1-4.66,6,9.07,9.07,0,0,1-6.08,2.41,5.36,5.36,0,0,1-3.69-1.1,3.52,3.52,0,0,1-1.22-2.72,5.51,5.51,0,0,1,.17-1.37q.17-.65.62-2.12l2.29-7.64a13.38,13.38,0,0,0,.69-3.64,3,3,0,0,0-.2-1.08,1.68,1.68,0,0,0-.6-.8,1.71,1.71,0,0,0-1-.29q-2.35,0-5.31,3.75a30.41,30.41,0,0,0-4.29,6.91q-2.53,6.2-2.92,7.64l-.54,2h-7.16l10.29-33.7a9.82,9.82,0,0,0,.69-2.59,1.36,1.36,0,0,0-.86-1.4,6.7,6.7,0,0,0-2.42-.35h-.9l.9-2.77a57.93,57.93,0,0,0,10.11-.72h2l-7.82,25.58q2.08-2.86,3.61-4.66a17.09,17.09,0,0,1,4-3.36,10.16,10.16,0,0,1,5.49-1.55,5.78,5.78,0,0,1,3.63,1.1,3.37,3.37,0,0,1,1.43,2.78,19.23,19.23,0,0,1-1.11,4.94l-3,9.93a8.82,8.82,0,0,0-.51,2.2,1.47,1.47,0,0,0,.17.66.6.6,0,0,0,.59.33q1.81,0,4.48-4.36Z"/><path class="cls-3" d="M207.43,381.19l-.84,2.77h-6l-4.54,14.87a8.71,8.71,0,0,0-.51,2.32,1.81,1.81,0,0,0,.42,1.16,1.3,1.3,0,0,0,1.05.53,3.84,3.84,0,0,0,3.07-1.7,25.19,25.19,0,0,0,2.38-3.69h2.83a19.2,19.2,0,0,1-3.81,5.82,11.65,11.65,0,0,1-4,2.77,9.94,9.94,0,0,1-3.39.68,5.33,5.33,0,0,1-4-1.5,5.54,5.54,0,0,1-1.44-4,17,17,0,0,1,.9-4.66L193.47,384h-5.63l.87-2.77h5.6l2.77-9.18h7.16l-2.77,9.18Z"/><path class="cls-3" d="M241.28,397.89a20.73,20.73,0,0,1-4.66,6,9.07,9.07,0,0,1-6.08,2.41,5.36,5.36,0,0,1-3.69-1.1,3.52,3.52,0,0,1-1.22-2.72,5.51,5.51,0,0,1,.17-1.37q.17-.65.62-2.12l2.29-7.64a13.38,13.38,0,0,0,.69-3.64,3,3,0,0,0-.2-1.08,1.68,1.68,0,0,0-.6-.8,1.71,1.71,0,0,0-1-.29q-2.35,0-5.31,3.75a30.41,30.41,0,0,0-4.29,6.91q-2.53,6.2-2.92,7.64l-.54,2h-7.16l10.29-33.7a9.82,9.82,0,0,0,.69-2.59,1.36,1.36,0,0,0-.86-1.4,6.7,6.7,0,0,0-2.42-.35h-.9l.9-2.77a57.93,57.93,0,0,0,10.11-.72h2l-7.82,25.58q2.08-2.86,3.61-4.66a17.09,17.09,0,0,1,4-3.36,10.16,10.16,0,0,1,5.49-1.55,5.78,5.78,0,0,1,3.63,1.1,3.37,3.37,0,0,1,1.43,2.78,19.23,19.23,0,0,1-1.11,4.94l-3,9.93a8.82,8.82,0,0,0-.51,2.2,1.47,1.47,0,0,0,.17.66.6.6,0,0,0,.59.33q1.81,0,4.48-4.36Z"/><path class="cls-3" d="M270.14,385.31a6.87,6.87,0,0,1-.75,2.84,11.31,11.31,0,0,1-2.75,3.42,17.79,17.79,0,0,1-5.72,3.19,36.66,36.66,0,0,1-9.34,1.9l-.72.06a11.41,11.41,0,0,0-.24,2.23,4.17,4.17,0,0,0,1.07,3.2,4.46,4.46,0,0,0,3.11,1q4.51,0,8.64-4.88h3.19a22.81,22.81,0,0,1-5.66,5.66,14.73,14.73,0,0,1-9,2.8,10,10,0,0,1-6.18-1.94,6.7,6.7,0,0,1-2.57-5.7,17.44,17.44,0,0,1,2.56-9,20.3,20.3,0,0,1,7-7.07,18,18,0,0,1,9.63-2.72q4.18,0,6,1.41A4.38,4.38,0,0,1,270.14,385.31Zm-6.35-.12a2.77,2.77,0,0,0-.69-1.82,2.34,2.34,0,0,0-1.9-.83,5.92,5.92,0,0,0-3.87,1.46,13.59,13.59,0,0,0-3,3.45,24.12,24.12,0,0,0-2,4l-.95,2.53q6.11-1,9.22-3.46T263.79,385.19Z"/><path class="cls-3" d="M318.29,398.62a21.47,21.47,0,0,1-2,3.25,14.84,14.84,0,0,1-2.41,2.59,10.7,10.7,0,0,1-2.66,1.69,7,7,0,0,1-2.78.57q-3.16,0-4-1.91a10.75,10.75,0,0,1-.89-4.56,31.24,31.24,0,0,1-4.75,4.66,8.55,8.55,0,0,1-5.36,1.81,4.45,4.45,0,0,1-2.95-1,5.7,5.7,0,0,1-1.73-2.63,11.07,11.07,0,0,1-.56-3.55,20.55,20.55,0,0,1,2.08-8.58,22,22,0,0,1,5.64-7.58,11.58,11.58,0,0,1,7.69-3.07,5.15,5.15,0,0,1,3,.75,4.09,4.09,0,0,1,1.49,1.69,14.35,14.35,0,0,1,.71,2.08l1.11-3.76h6.65l-5.6,18.36a13.4,13.4,0,0,0-.6,2.41.93.93,0,0,0,.26.66.79.79,0,0,0,.59.27q2,0,4.18-4.15Zm-11.22-12a5.34,5.34,0,0,0-.56-2.53,2.09,2.09,0,0,0-2-1.05q-2.26,0-4.38,2.6a21,21,0,0,0-3.43,6.29,19.25,19.25,0,0,0-1.31,6.21q0,3.64,2.29,3.64a5,5,0,0,0,3.27-1.46,15.34,15.34,0,0,0,3.08-3.9,24.43,24.43,0,0,0,2.27-5.12A16.09,16.09,0,0,0,307.07,386.61Z"/><path class="cls-3" d="M346.49,385.44a3.16,3.16,0,0,1-.83,2.17,2.85,2.85,0,0,1-2.24.93,3,3,0,0,1-1.7-.42,2.8,2.8,0,0,1-1-1.17q-.35-.75-.86-2.23a3.31,3.31,0,0,0-.95-1.59,3.7,3.7,0,0,0-2.39-.57,5,5,0,0,0-2.81.81,2.46,2.46,0,0,0-1.25,2.14,3.17,3.17,0,0,0,.51,1.72,8.46,8.46,0,0,0,1.25,1.53q.74.72,2.3,2a30.53,30.53,0,0,1,4.29,4.06,6.3,6.3,0,0,1,1.34,4.09,6.83,6.83,0,0,1-1.14,3.76,8,8,0,0,1-3.79,2.89,17.61,17.61,0,0,1-6.77,1.11q-5.93,0-8.34-2.18t-2.41-4.23a3.42,3.42,0,0,1,.93-2.38,3.18,3.18,0,0,1,2.47-1q3.07,0,3.52,3.94a5.5,5.5,0,0,0,.95,2.66q.74,1,3.05,1a5.17,5.17,0,0,0,3.31-1,3.19,3.19,0,0,0,1.29-2.62,3.46,3.46,0,0,0-.44-1.66,7.82,7.82,0,0,0-1.82-2q-2.44-2-4-3.61a14,14,0,0,1-2.39-3,6.11,6.11,0,0,1-.81-3,6.32,6.32,0,0,1,.93-3.07,7.7,7.7,0,0,1,3.52-2.9,16.34,16.34,0,0,1,7-1.25,18,18,0,0,1,4.57.5,8.29,8.29,0,0,1,2.87,1.26,4.41,4.41,0,0,1,1.4,1.63A4.13,4.13,0,0,1,346.49,385.44Z"/><path class="cls-3" d="M381.88,397.89a20.73,20.73,0,0,1-4.66,6,9.07,9.07,0,0,1-6.08,2.41,5.36,5.36,0,0,1-3.69-1.1,3.52,3.52,0,0,1-1.22-2.72,5.51,5.51,0,0,1,.17-1.37q.17-.65.62-2.12l2.29-7.64a13.38,13.38,0,0,0,.69-3.64,3,3,0,0,0-.2-1.08,1.68,1.68,0,0,0-.6-.8,1.71,1.71,0,0,0-1-.29q-2.35,0-5.31,3.75a30.41,30.41,0,0,0-4.29,6.91q-2.53,6.2-2.92,7.64l-.54,2H348l10.29-33.7a9.82,9.82,0,0,0,.69-2.59,1.36,1.36,0,0,0-.86-1.4,6.7,6.7,0,0,0-2.42-.35h-.9l.9-2.77a57.93,57.93,0,0,0,10.11-.72h2L360,389.89q2.08-2.86,3.61-4.66a17.09,17.09,0,0,1,4-3.36,10.16,10.16,0,0,1,5.49-1.55,5.78,5.78,0,0,1,3.63,1.1,3.37,3.37,0,0,1,1.43,2.78,19.23,19.23,0,0,1-1.11,4.94l-3,9.93a8.82,8.82,0,0,0-.51,2.2,1.47,1.47,0,0,0,.17.66.6.6,0,0,0,.59.33q1.81,0,4.48-4.36Z"/><path class="cls-3" d="M403.88,381.19,403,384h-6l-4.54,14.87a8.71,8.71,0,0,0-.51,2.32,1.81,1.81,0,0,0,.42,1.16,1.3,1.3,0,0,0,1.05.53,3.84,3.84,0,0,0,3.07-1.7,25.19,25.19,0,0,0,2.38-3.69h2.83a19.2,19.2,0,0,1-3.81,5.82,11.65,11.65,0,0,1-4,2.77,9.94,9.94,0,0,1-3.39.68,5.33,5.33,0,0,1-4-1.5,5.54,5.54,0,0,1-1.44-4,17,17,0,0,1,.9-4.66L389.91,384h-5.63l.87-2.77h5.6l2.77-9.18h7.16l-2.77,9.18Z"/><path class="cls-3" d="M431.26,384.26a5.59,5.59,0,0,1-1.05,3.36,3.16,3.16,0,0,1-2.65,1.46,3.55,3.55,0,0,1-2.65-1.59,1.94,1.94,0,0,0-1.41-.93q-.81,0-2.23,1.52a23.45,23.45,0,0,0-2.9,4,56.37,56.37,0,0,0-2.93,5.79,60.22,60.22,0,0,0-2.5,6.7l-.36,1.23H405.5L410.23,389a13.86,13.86,0,0,0,.75-3.4,1.34,1.34,0,0,0-.21-.71.72.72,0,0,0-.66-.35q-1.17,0-2.38,1.64a16.56,16.56,0,0,0-1.81,3h-2.77a22.35,22.35,0,0,1,3.57-5.4,11.46,11.46,0,0,1,3.52-2.66,7.72,7.72,0,0,1,3.08-.75q2.41,0,3.11,1.5a6.9,6.9,0,0,1,.71,2.95,32.63,32.63,0,0,1-1.69,8.25q1.72-2.95,2.81-4.72a37.2,37.2,0,0,1,2.62-3.67,16.06,16.06,0,0,1,3.22-3.1,5.77,5.77,0,0,1,3.33-1.2q2.32,0,3.07,1.31A5.24,5.24,0,0,1,431.26,384.26Z"/><path class="cls-3" d="M462.08,398.62a21.47,21.47,0,0,1-2,3.25,14.84,14.84,0,0,1-2.41,2.59,10.7,10.7,0,0,1-2.66,1.69,7,7,0,0,1-2.78.57q-3.16,0-4-1.91a10.75,10.75,0,0,1-.89-4.56,31.24,31.24,0,0,1-4.75,4.66,8.55,8.55,0,0,1-5.36,1.81,4.45,4.45,0,0,1-2.95-1,5.7,5.7,0,0,1-1.73-2.63,11.07,11.07,0,0,1-.56-3.55,20.55,20.55,0,0,1,2.08-8.58,22,22,0,0,1,5.64-7.58,11.58,11.58,0,0,1,7.69-3.07,5.15,5.15,0,0,1,3,.75,4.09,4.09,0,0,1,1.49,1.69,14.35,14.35,0,0,1,.71,2.08l1.11-3.76h6.65l-5.6,18.36a13.4,13.4,0,0,0-.6,2.41.93.93,0,0,0,.26.66.79.79,0,0,0,.59.27q2,0,4.18-4.15Zm-11.22-12a5.34,5.34,0,0,0-.56-2.53,2.09,2.09,0,0,0-2-1.05q-2.26,0-4.38,2.6a21,21,0,0,0-3.43,6.29,19.25,19.25,0,0,0-1.31,6.21q0,3.64,2.29,3.64a5,5,0,0,0,3.27-1.46,15.34,15.34,0,0,0,3.08-3.9,24.43,24.43,0,0,0,2.27-5.12A16.09,16.09,0,0,0,450.85,386.61Z"/><path class="cls-3" d="M492.56,386q0,5.24-3.54,11.35a53.44,53.44,0,0,1-9.09,11.51,55.15,55.15,0,0,1-11.54,8.74q-6,3.34-10.47,3.34a6.72,6.72,0,0,1-3.49-.86A2.73,2.73,0,0,1,453,417.6a2.58,2.58,0,0,1,1.05-2.12,3.79,3.79,0,0,1,2.41-.83,7.4,7.4,0,0,1,1.84.2,15.82,15.82,0,0,1,1.93.68,13.36,13.36,0,0,0,3.76.84,5.81,5.81,0,0,0,3.66-1.25,10.44,10.44,0,0,0,2.63-3q2.47-4.33,2.47-12.22,0-1.93-.12-4t-.36-4.35a32.14,32.14,0,0,0-.69-4.09,4.83,4.83,0,0,0-.83-1.75,1.67,1.67,0,0,0-1.34-.78q-2.35,0-2.89,5.3H464q.69-6,3.13-7.94a7.67,7.67,0,0,1,4.69-1.93q4.54,0,6.21,4.92A36.6,36.6,0,0,1,479.74,397a58,58,0,0,1-.6,9.24q5.36-6.26,5.78-6.89a26.7,26.7,0,0,0,2.26-4,9.3,9.3,0,0,0,.87-3.84,12,12,0,0,0-1-4.06A11.84,11.84,0,0,1,486,383.6a3.56,3.56,0,0,1,.77-2.36,2.31,2.31,0,0,1,1.82-.92,3.26,3.26,0,0,1,1.94.66,4.67,4.67,0,0,1,1.49,1.94A7.53,7.53,0,0,1,492.56,386Z"/><path class="cls-3" d="M504.69,404.91a10.9,10.9,0,0,1-1.5,5.28,13.63,13.63,0,0,1-4.56,4.74,16.05,16.05,0,0,1-7.42,2.44l.87-2.77q4.69-.93,6.85-3.22t2.15-3.76a.75.75,0,0,0-.26-.68,1.81,1.81,0,0,0-.92-.17,3.78,3.78,0,0,1-2.56-1.08,3.66,3.66,0,0,1-1.2-2.86,3.76,3.76,0,0,1,1.14-2.86,3.84,3.84,0,0,1,2.74-1.08,3.91,3.91,0,0,1,3.45,1.82A7.37,7.37,0,0,1,504.69,404.91Z"/></g></svg>