<svg xmlns="http://www.w3.org/2000/svg" xmlns:xlink="http://www.w3.org/1999/xlink" viewBox="0 0 595.28 841.89"><defs><style>.cls-1{fill:#f50000;}.cls-2{fill:#fff;}</style></defs><title>marcie cartaz</title><g id="Camada_2" data-name="Camada 2"><image width="595" height="842" transform="translate(0.14 -0.05)" xlink:href="../Sem Título-2.png"/><rect class="cls-1" x="25.65" y="735.36" width="550" height="63.38"/><path class="cls-2" d="M84.21,768.56v19.92H69.84v-3.1c-2.1,2.1-5.78,4-11.39,4-8.82,0-13.55-3-13.55-9.46,0-7.24,4.38-11.57,24.94-10.57v-.76c0-2.86-1-4.32-5.08-4.32-3.15,0-4.91.64-5.32,2.57H46.59c1.11-7.59,7.77-10.28,18.17-10.28S84.21,758.28,84.21,768.56Zm-14.37,8c-7.19-.35-11.16-.12-11.16,3.1,0,2.39,2.16,2.8,4,2.8a10.38,10.38,0,0,0,7.13-2.51Z"/><path class="cls-2" d="M126.57,769.26v19.22H112.2v-16.3c0-3.45-.7-6-5-6s-5.14,2.51-5.14,6v16.3H87.72V757.34h14.37v3.86c1.52-2,4.79-4.67,11-4.67C122.07,756.52,126.57,760.73,126.57,769.26Z"/><path class="cls-2" d="M146.2,756.52c4.85,0,8.41,1.4,10.87,4v-13h14.43v40.89H157.07v-3.15c-2.45,2.63-6,4-10.87,4-9.58,0-16.71-5.84-16.71-16.42S136.62,756.52,146.2,756.52Zm4.44,23.66c5.14,0,7.54-2.92,7.54-7.24s-2.39-7.3-7.54-7.3-7.3,3.27-7.3,7.3S145.56,780.18,150.64,780.18Z"/><path class="cls-2" d="M206.84,747.59v40.89H190.78V747.59Z"/><path class="cls-2" d="M243.3,778.78l-2.74,2.63v7.07H226.13V747.59h14.43v18.17l7.77-8.41h17.35L252.53,769.9l13.79,18.58H249.73Z"/><path class="cls-2" d="M268.48,748.29c0-4.32,3-6.78,7.36-6.78s7.36,2.45,7.36,6.78-3,6.72-7.36,6.72S268.48,752.55,268.48,748.29Zm.18,9.05H283v31.14H268.66Z"/><path class="cls-2" d="M300.9,745.37v43.11H286.53V745.37Z"/><path class="cls-2" d="M318.78,745.37v43.11H304.41V745.37Z"/><path class="cls-2" d="M335.37,775.8c.76,2.92,3,5,7.24,5,3,0,4.91-1.11,6.07-2.81h13.14c-2,8.53-10.52,11.39-19.22,11.39-10.28,0-20.91-4.38-20.91-16.42s10.52-16.41,20.62-16.41c9.4,0,20.79,4.79,20,19.28Zm.06-6.08h13.32c-.82-2.86-2.74-4.62-6.42-4.62C338.24,765.11,336.25,767,335.43,769.73Z"/><path class="cls-2" d="M381.41,756.52c4.85,0,8.41,1.4,10.87,4v-13h14.43v40.89H392.28v-3.15c-2.45,2.63-6,4-10.87,4-9.58,0-16.71-5.84-16.71-16.42S371.83,756.52,381.41,756.52Zm4.44,23.66c5.14,0,7.54-2.92,7.54-7.24s-2.39-7.3-7.54-7.3-7.3,3.27-7.3,7.3S380.77,780.18,385.85,780.18Z"/><path class="cls-2" d="M464.25,769.26v19.22H449.88v-16.3c0-3.45-.7-6-5-6s-5.14,2.51-5.14,6v16.3H425.41V747.59h14.37V761.2c1.52-2,4.79-4.67,11-4.67C459.75,756.52,464.25,760.73,464.25,769.26Z"/><path class="cls-2" d="M467.59,748.29c0-4.32,3-6.78,7.36-6.78s7.36,2.45,7.36,6.78-3,6.72-7.36,6.72S467.59,752.55,467.59,748.29Zm.18,9.05h14.37v31.14H467.76Z"/><path class="cls-2" d="M544.58,769.26v19.22H530.15v-16.3c0-3.21.06-6-3.8-6s-4.09,2.63-4.09,6v16.3H507.89v-16.3c0-3.21.06-6-3.8-6s-4.09,2.63-4.09,6v16.3H485.64V757.34H500v4.21c1.4-2.16,4.38-5,9.93-5s9,1.64,10.81,4.91c1.58-2,5-4.91,10.92-4.91C540.61,756.52,544.58,760.73,544.58,769.26Z"/><path class="cls-2" d="M561.94,782.4a6.92,6.92,0,1,1-6.89-7A6.92,6.92,0,0,1,561.94,782.4Z"/></g></svg>